<?xml version="1.0" encoding="UTF-8" standalone="no"?>
<!-- Created with Inkscape (http://www.inkscape.org/) -->

<svg
   width="210mm"
   height="297mm"
   viewBox="0 0 210 297"
   version="1.1"
   id="svg282"
   xml:space="preserve"
   inkscape:version="1.3 (1:1.3+202307231459+0e150ed6c4)"
   sodipodi:docname="rimworld_bodies_thin_gen3_thickpants.svg"
   xmlns:inkscape="http://www.inkscape.org/namespaces/inkscape"
   xmlns:sodipodi="http://sodipodi.sourceforge.net/DTD/sodipodi-0.dtd"
   xmlns:xlink="http://www.w3.org/1999/xlink"
   xmlns="http://www.w3.org/2000/svg"
   xmlns:svg="http://www.w3.org/2000/svg"><sodipodi:namedview
     id="namedview284"
     pagecolor="#ffffff"
     bordercolor="#000000"
     borderopacity="0.25"
     inkscape:showpageshadow="2"
     inkscape:pageopacity="0.0"
     inkscape:pagecheckerboard="0"
     inkscape:deskcolor="#d1d1d1"
     inkscape:document-units="mm"
     showgrid="false"
     inkscape:zoom="0.37861251"
     inkscape:cx="2713.8564"
     inkscape:cy="607.48125"
     inkscape:window-width="1850"
     inkscape:window-height="1016"
     inkscape:window-x="70"
     inkscape:window-y="27"
     inkscape:window-maximized="1"
     inkscape:current-layer="layer1"
     showguides="true" /><defs
     id="defs279" /><g
     inkscape:label="Layer 1"
     inkscape:groupmode="layer"
     id="layer1"><rect
       style="fill:#b3b3b3;fill-opacity:1;stroke:none;stroke-width:1.6;stroke-linecap:round"
       id="rect5842"
       width="90.311111"
       height="90.311111"
       x="0.6632238"
       y="1.6279085" /><path
       style="fill:#ffffff;fill-opacity:1;stroke:#000000;stroke-width:1.9;stroke-linecap:round;stroke-dasharray:none;stroke-opacity:1"
       d="m 45.81878,33.493671 c -4.857216,0.441502 -7.955823,2.167038 -7.928071,5.945171 -0.161288,4.823477 -0.214589,9.775586 -0.194777,15.56266 0.01107,3.232458 0.09054,6.484 0.03541,9.593585 -1.122035,2.902089 -2.607284,4.849832 -1.606679,7.122485 2.568596,3.120433 5.56702,4.638134 9.694119,4.616058"
       id="path6261"
       sodipodi:nodetypes="ccsccc" /><path
       style="fill:#000000;fill-opacity:1;stroke:none;stroke-width:1.9;stroke-linecap:round;stroke-dasharray:none;stroke-opacity:1"
       d="m 37.828506,48.616657 c 0.409183,2.282683 1.570709,11.597329 1.493452,13.950442 0.01025,0.791971 -0.593024,2.283279 -1.023909,3.164063 z"
       id="path6317"
       sodipodi:nodetypes="cccc" /><path
       style="fill:#ffffff;fill-opacity:1;stroke:#000000;stroke-width:1.9;stroke-linecap:round;stroke-dasharray:none;stroke-opacity:1"
       d="m 35.91062,69.146286 c -0.314362,1.752606 -1.595787,4.824996 -1.184562,9.408215 0.438671,3.004549 1.730787,6.520883 2.508138,9.902442 2.372202,2.248219 5.378878,2.684155 8.584584,1.965537 V 74.064871"
       id="path6373"
       sodipodi:nodetypes="ccccc" /><use
       x="0"
       y="0"
       xlink:href="#path6261"
       id="use6375"
       transform="matrix(-1,0,0,1,91.637559,-1.2279802e-7)" /><use
       x="0"
       y="0"
       xlink:href="#path6317"
       id="use6377"
       transform="matrix(-1,0,0,1,91.637559,-1.2279802e-7)" /><use
       x="0"
       y="0"
       xlink:href="#path6373"
       id="use6379"
       transform="matrix(-1,0,0,1,91.637559,-1.2279802e-7)" /><path
       style="fill:#ffffff;fill-opacity:1;stroke:none;stroke-width:1.2;stroke-linecap:round;stroke-dasharray:none;stroke-opacity:1"
       d="m 43.646249,72.768121 h 4.159517 V 89.289278 H 44.00703 Z"
       id="path6808" /><path
       style="fill:none;fill-opacity:1;stroke:#000000;stroke-width:1;stroke-linecap:round;stroke-dasharray:none;stroke-opacity:1"
       d="m 41.918027,64.48698 c 0.140497,0.870553 0.332458,2.625102 1.017181,3.44839 1.586022,1.486928 0.617571,2.152137 2.883569,2.771583"
       id="path6642"
       sodipodi:nodetypes="ccc" /><use
       x="0"
       y="0"
       xlink:href="#path6642"
       id="use6806"
       transform="matrix(-1,0,0,1,91.637559,-1.2279802e-7)" /><path
       style="fill:#000000;fill-opacity:1;stroke:none;stroke-width:0.987958;stroke-linecap:round;stroke-dasharray:none;stroke-opacity:1"
       d="m 44.618902,90.639425 c 0.697244,-5.60495 0.840356,-14.160718 0.228342,-19.792038 l 1.872328,0.04753 c -0.475964,5.546556 -0.362428,14.047847 0.298938,19.744496 z"
       id="path6812"
       sodipodi:nodetypes="ccccc" /><rect
       style="fill:#b3b3b3;fill-opacity:1;stroke:none;stroke-width:1.6;stroke-linecap:round"
       id="rect5842-7"
       width="90.311111"
       height="90.311111"
       x="2.0991259"
       y="205.32852" /><path
       style="fill:#ffffff;fill-opacity:1;stroke:#000000;stroke-width:1.9;stroke-linecap:round;stroke-dasharray:none;stroke-opacity:1"
       d="m 47.254683,237.19428 c -6.59479,0 -7.472762,2.4593 -7.926828,5.99649 -0.591998,4.96424 -0.307083,9.64793 -0.324891,15.1826 0.05102,2.95467 0.346988,5.29545 0.386691,8.51139 0.26575,4.09476 0.275125,7.15915 0.846236,9.43895 2.5686,3.12043 2.652402,3.91445 7.018792,3.71053"
       id="path6261-4"
       sodipodi:nodetypes="cccccc" /><path
       style="fill:#000000;fill-opacity:1;stroke:none;stroke-width:1.9;stroke-linecap:round;stroke-dasharray:none;stroke-opacity:1"
       d="m 39.578756,252.35604 3.431697,-2.01345 -3.426537,4.3979 z"
       id="path6317-5"
       sodipodi:nodetypes="cccc" /><path
       style="fill:#ffffff;fill-opacity:1;stroke:#000000;stroke-width:1.9;stroke-linecap:round;stroke-dasharray:none;stroke-opacity:1"
       d="m 39.307048,263.34985 c 0.03129,0.16141 0.200033,1.155 -0.03536,1.75121 -1.04408,2.64441 -4.084217,9.1021 -3.5567,15.26095 0.43867,3.00455 1.69922,7.56277 2.47657,10.94432 2.902281,3.76076 5.869409,3.37817 9.063129,2.81676 v -16.35761"
       id="path6373-2"
       sodipodi:nodetypes="cscccc" /><use
       x="0"
       y="0"
       xlink:href="#path6261-4"
       id="use6375-5"
       transform="matrix(-1,0,0,1,94.509357,-1.2279802e-7)" /><use
       x="0"
       y="0"
       xlink:href="#path6317-5"
       id="use6377-4"
       transform="matrix(-1,0,0,1,94.509357,-1.2279802e-7)" /><use
       x="0"
       y="0"
       xlink:href="#path6373-2"
       id="use6379-7"
       transform="matrix(-1,0,0,1,94.509357,-1.2279802e-7)" /><path
       style="fill:#ffffff;fill-opacity:1;stroke:none;stroke-width:1.2;stroke-linecap:round;stroke-dasharray:none;stroke-opacity:1"
       d="m 45.082153,276.46873 h 4.15952 v 16.52117 h -3.79874 z"
       id="path6808-44" /><path
       style="fill:none;fill-opacity:1;stroke:#000000;stroke-width:1;stroke-linecap:round;stroke-dasharray:none;stroke-opacity:1"
       d="m 44.952427,263.62088 c 1.154504,1.57876 1.842858,0.44429 2.09927,4.31429 0.09876,1.08855 0.306312,1.82979 0.103495,2.89838 -0.59493,3.13452 -0.903534,3.47959 -3.959261,4.3704"
       id="path6642-3"
       sodipodi:nodetypes="ccsc" /><use
       x="0"
       y="0"
       xlink:href="#path6642-3"
       id="use6806-0"
       transform="matrix(-1,0,0,1,94.509357,-1.2279802e-7)" /><path
       style="fill:#000000;fill-opacity:1;stroke:none;stroke-width:0.987958;stroke-linecap:round;stroke-dasharray:none;stroke-opacity:1"
       d="m 46.054803,294.34004 c 0.69725,-5.60494 0.84036,-15.83003 0.22834,-21.46135 l 1.039002,-1.07067 0.833328,1.11817 c -0.47596,5.54655 -0.36243,15.71716 0.29894,21.41381 z"
       id="path6812-7"
       sodipodi:nodetypes="cccccc" /><rect
       style="display:inline;fill:#b3b3b3;fill-opacity:1;stroke:none;stroke-width:1.6;stroke-linecap:round"
       id="rect5842-6-9"
       width="90.311111"
       height="90.311111"
       x="1.7951666"
       y="108.38057"
       inkscape:export-filename="thin_body_east.png"
       inkscape:export-xdpi="72.000008"
       inkscape:export-ydpi="72.000008" /><path
       style="fill:#ffffff;fill-opacity:1;stroke:#000000;stroke-width:1.9;stroke-linecap:round;stroke-dasharray:none;stroke-opacity:1"
       d="m 40.569944,147.2498 c 2.525872,-6.43463 5.903982,-6.79473 9.783386,-5.7835 3.875036,1.0101 4.659034,4.48852 4.234878,8.69073 -0.179859,1.7819 -1.694856,8.98034 -2.540857,11.54224 -1.187069,3.59475 -0.750193,3.62701 -2.586659,7.79745 l -1.405163,5.4732 c -1.216363,3.32067 -2.062743,7.60532 -7.128674,7.43787 -3.456789,-0.92471 -3.671271,0.0609 -6.073839,-3.89028 -1.258948,-4.37772 -0.475397,-7.07197 -0.08856,-10.58683 0.956729,-4.83069 1.495396,-7.24797 2.788053,-11.39614 1.05834,-3.39624 1.945461,-6.51709 3.017441,-9.28474 z"
       id="path7087"
       sodipodi:nodetypes="cssscccccscc" /><path
       style="fill:#ffffff;fill-opacity:1;stroke:#000000;stroke-width:1.9;stroke-linecap:round;stroke-dasharray:none;stroke-opacity:1"
       d="m 34.644173,170.37831 c -1.514318,2.95098 -5.699346,2.96568 -6.32596,9.07487 0.06289,4.61779 -1.372447,8.48046 -0.767095,13.16428 2.307431,5.36611 7.835163,5.05842 11.143951,4.43995 2.040011,-3.89147 5.483521,-9.8498 6.742051,-14.69014 0.945309,-2.63576 1.978586,-4.90187 1.84486,-6.13554"
       id="path7116"
       sodipodi:nodetypes="cccccc" /><path
       style="fill:#000000;fill-opacity:1;stroke:none;stroke-width:1.9;stroke-linecap:round;stroke-dasharray:none;stroke-opacity:1"
       d="m 46.197991,178.76311 c -0.04931,-2.45114 0.0418,-7.99645 -0.447299,-10.43429 0.903751,1.0755 0.778026,5.77332 2.432223,6.38047 l -1.500016,4.39278 z"
       id="path7118"
       sodipodi:nodetypes="ccccc" /><path
       style="fill:#000000;fill-opacity:1;stroke:none;stroke-width:1.9;stroke-linecap:round;stroke-dasharray:none;stroke-opacity:1"
       d="m 35.67379,167.82224 c 0.208144,0.42894 -0.06439,1.98258 1.158732,2.24555 -0.852584,0.57623 -1.804599,1.98666 -2.416913,2.60846 z"
       id="path7336"
       sodipodi:nodetypes="cccc" /><rect
       style="display:inline;fill:#b3b3b3;fill-opacity:1;stroke:none;stroke-width:1.6;stroke-linecap:round"
       id="rect9092"
       width="90.311111"
       height="90.311111"
       x="425.45694"
       y="205.32832"
       inkscape:export-filename="thin_body_north.png"
       inkscape:export-xdpi="72.000008"
       inkscape:export-ydpi="72.000008" /><rect
       style="display:inline;fill:#b3b3b3;fill-opacity:1;stroke:none;stroke-width:1.6;stroke-linecap:round"
       id="rect9094"
       width="90.311111"
       height="90.311111"
       x="425.74509"
       y="3.4159257"
       inkscape:export-filename="thin_body.png"
       inkscape:export-xdpi="72.000008"
       inkscape:export-ydpi="72.000008" /><path
       id="path9106"
       style="fill:#ffffff;fill-opacity:1;stroke:#000000;stroke-width:1.9;stroke-linecap:round;stroke-dasharray:none;stroke-opacity:1"
       d="m 470.90082,35.281567 c -4.8572,0.441502 -7.95595,2.167245 -7.9282,5.945374 -0.16129,4.823472 -0.21463,9.775289 -0.19482,15.562358 0.0111,3.232454 0.0908,6.484147 0.0357,9.593729 -1.12203,2.902086 -2.60775,4.849912 -1.60714,7.122563 2.56859,3.12043 5.56741,4.638331 9.6945,4.616256 4.1271,0.02208 7.1254,-1.495826 9.69398,-4.616256 1.00061,-2.272651 -0.48459,-4.220477 -1.60662,-7.122563 -0.0551,-3.109582 0.024,-6.361275 0.0351,-9.593729 0.0198,-5.787069 -0.0335,-10.738886 -0.19482,-15.562358 0.0277,-3.778129 -3.07047,-5.503872 -7.92768,-5.945374 z" /><path
       style="fill:#000000;fill-opacity:1;stroke:none;stroke-width:1.9;stroke-linecap:round;stroke-dasharray:none;stroke-opacity:1"
       d="m 462.9714,50.189464 c 0.40918,2.282683 1.68144,7.958604 1.60418,10.311717 0.0102,0.791971 -0.68947,2.084681 -1.12036,2.965465 z"
       id="path9108"
       sodipodi:nodetypes="cccc" /><path
       style="fill:#ffffff;fill-opacity:1;stroke:#000000;stroke-width:1.9;stroke-linecap:round;stroke-dasharray:none;stroke-opacity:1"
       d="m 460.99251,70.934304 c -0.31436,1.752606 -1.59578,4.824996 -1.18456,9.408215 0.43867,3.004549 1.73079,6.520883 2.50814,9.902442 2.3722,2.248219 5.37888,2.684155 8.58458,1.965537 V 75.852889"
       id="path9110"
       sodipodi:nodetypes="ccccc" /><path
       style="fill:#000000;fill-opacity:1;stroke:none;stroke-width:1.9;stroke-linecap:round;stroke-dasharray:none;stroke-opacity:1"
       d="m 478.82994,50.189464 c -0.40918,2.282683 -1.68144,7.958604 -1.60418,10.311717 -0.0102,0.791971 0.68947,2.084681 1.12036,2.965465 z"
       id="use9112"
       sodipodi:nodetypes="cccc" /><path
       style="fill:#ffffff;fill-opacity:1;stroke:#000000;stroke-width:1.9;stroke-linecap:round;stroke-dasharray:none;stroke-opacity:1"
       d="m 480.80883,70.934304 c 0.31436,1.752606 1.59578,4.824996 1.18456,9.408215 -0.43867,3.004549 -1.73079,6.520883 -2.50814,9.902442 -2.3722,2.248219 -5.37888,2.684155 -8.58458,1.965537 V 75.852889"
       id="use9114"
       sodipodi:nodetypes="ccccc" /><path
       style="fill:#ffffff;fill-opacity:1;stroke:none;stroke-width:1.2;stroke-linecap:round;stroke-dasharray:none;stroke-opacity:1"
       d="m 468.72814,74.556139 h 4.15952 v 16.521157 h -3.79874 z"
       id="path9116" /><path
       id="path9222"
       style="fill:#ffd5d5;fill-opacity:1;stroke:none;stroke-width:1.9;stroke-linecap:round;stroke-dasharray:none;stroke-opacity:1"
       d="m 462.81336,66.383028 c -0.50714,1.60571 -1.47057,3.116927 -1.82139,4.551127 -0.31436,1.752604 -1.59564,4.824996 -1.18442,9.408211 0.43867,3.004546 1.73102,6.521199 2.50837,9.902755 2.3722,2.248216 5.3788,2.683872 8.58449,1.965254 3.2057,0.718618 6.21229,0.282962 8.58449,-1.965254 0.77735,-3.381556 2.06971,-6.898209 2.50837,-9.902755 0.41122,-4.583215 -0.87058,-7.655607 -1.18494,-9.408211 -0.4655,-1.699203 -1.29722,-3.216495 -1.8204,-4.551127 -5.36959,1.838059 -10.75817,2.084044 -16.17457,0 z"
       sodipodi:nodetypes="cccccccccc" /><path
       style="fill:none;fill-opacity:1;stroke:#808080;stroke-width:1;stroke-linecap:round;stroke-dasharray:none;stroke-opacity:1"
       d="m 467.21275,67.582955 c 0.1511,0.78496 0.38555,1.636885 0.80435,2.140433 1.58602,1.486928 0.61757,2.152137 2.88357,2.771583"
       id="path9118"
       sodipodi:nodetypes="ccc" /><path
       style="fill:none;fill-opacity:1;stroke:#808080;stroke-width:1;stroke-linecap:round;stroke-dasharray:none;stroke-opacity:1"
       d="m 474.62177,67.562265 c -0.14956,0.83127 -0.38677,1.619138 -0.83753,2.161123 -1.58602,1.486928 -0.61757,2.152137 -2.88357,2.771583"
       id="use9120"
       sodipodi:nodetypes="ccc" /><path
       style="fill:#808080;fill-opacity:1;stroke:none;stroke-width:0.987958;stroke-linecap:round;stroke-dasharray:none;stroke-opacity:1"
       d="m 469.70079,92.427443 c 0.69725,-5.60495 0.84036,-14.160718 0.22835,-19.792038 l 1.87232,0.04753 c -0.47596,5.546556 -0.36242,14.047847 0.29894,19.744496 z"
       id="path9122"
       sodipodi:nodetypes="ccccc" /><path
       id="path9124"
       style="fill:#ffffff;fill-opacity:1;stroke:#000000;stroke-width:1.9;stroke-linecap:round;stroke-dasharray:none;stroke-opacity:1"
       d="m 470.61244,237.19431 c -6.59478,0 -7.47258,2.45883 -7.92665,5.99601 -0.592,4.96424 -0.30723,9.64839 -0.32504,15.18306 0.051,2.95466 0.34684,5.29517 0.38654,8.5111 0.26575,4.09476 0.27535,7.15942 0.84646,9.43922 2.56859,3.12043 2.6523,3.91429 7.01869,3.71037 4.36639,0.20392 4.4501,-0.58994 7.01869,-3.71037 0.57111,-2.2798 0.58071,-5.34446 0.84646,-9.43922 0.0397,-3.21593 0.33554,-5.55644 0.38654,-8.5111 -0.0178,-5.53467 0.26696,-10.21882 -0.32504,-15.18306 -0.45407,-3.53718 -1.33187,-5.99601 -7.92665,-5.99601 z" /><path
       style="fill:#000000;fill-opacity:1;stroke:none;stroke-width:1.9;stroke-linecap:round;stroke-dasharray:none;stroke-opacity:1"
       d="m 462.93657,252.35584 3.4317,-2.01345 -3.42654,4.3979 z"
       id="path9126"
       sodipodi:nodetypes="cccc" /><path
       style="fill:#ffffff;fill-opacity:1;stroke:#000000;stroke-width:1.9;stroke-linecap:round;stroke-dasharray:none;stroke-opacity:1"
       d="m 462.66486,263.34965 c 0.0313,0.16141 0.20004,1.155 -0.0354,1.75121 -1.04408,2.64441 -4.08421,9.1021 -3.5567,15.26095 0.43867,3.00455 1.69922,7.56277 2.47657,10.94432 2.90228,3.76076 5.86941,3.37817 9.06313,2.81676 v -16.35761"
       id="path9128"
       sodipodi:nodetypes="cscccc" /><path
       style="fill:#000000;fill-opacity:1;stroke:none;stroke-width:1.9;stroke-linecap:round;stroke-dasharray:none;stroke-opacity:1"
       d="m 478.28842,252.35584 -3.4317,-2.01345 3.42654,4.3979 z"
       id="use9130"
       sodipodi:nodetypes="cccc" /><path
       style="fill:#ffffff;fill-opacity:1;stroke:#000000;stroke-width:1.9;stroke-linecap:round;stroke-dasharray:none;stroke-opacity:1"
       d="m 478.56013,263.34965 c -0.0313,0.16141 -0.20004,1.155 0.0354,1.75121 1.04408,2.64441 4.08421,9.1021 3.5567,15.26095 -0.43867,3.00455 -1.69922,7.56277 -2.47657,10.94432 -2.90228,3.76076 -5.86941,3.37817 -9.06313,2.81676 v -16.35761"
       id="use9132"
       sodipodi:nodetypes="cscccc" /><path
       style="fill:#ffffff;fill-opacity:1;stroke:none;stroke-width:1.2;stroke-linecap:round;stroke-dasharray:none;stroke-opacity:1"
       d="m 468.43997,276.46853 h 4.15952 v 16.52117 h -3.79874 z"
       id="path9134" /><path
       id="path14067"
       style="fill:#ffd5d5;fill-opacity:1;stroke:none;stroke-width:1.9;stroke-linecap:round;stroke-dasharray:none;stroke-opacity:1"
       d="m 462.62939,265.10061 c -1.04408,2.64441 -4.0844,9.10224 -3.55689,15.26109 0.43867,3.00455 1.69951,7.563 2.47685,10.94455 2.90228,3.76076 5.8693,3.37829 9.06302,2.81688 3.19371,0.56141 6.16125,0.94388 9.06353,-2.81688 0.77735,-3.38155 2.03766,-7.94 2.47633,-10.94455 0.52751,-6.15885 -2.51281,-12.61668 -3.55689,-15.26109 l 0.0101,-1.94913 c -5.31621,0.78725 -10.6614,0.74688 -15.92123,0.21057 z"
       sodipodi:nodetypes="cccccccccc" /><path
       style="fill:none;fill-opacity:1;stroke:#8f8f8f;stroke-width:1;stroke-linecap:round;stroke-dasharray:none;stroke-opacity:1"
       d="m 468.58878,263.96288 c 0.98754,1.08241 1.58566,0.42412 1.82073,3.97209 0.0988,1.08855 0.30631,1.82979 0.1035,2.89838 -0.59493,3.13452 -0.90354,3.47959 -3.95926,4.3704"
       id="path9136"
       sodipodi:nodetypes="ccsc" /><path
       style="fill:none;fill-opacity:1;stroke:#8f8f8f;stroke-width:1;stroke-linecap:round;stroke-dasharray:none;stroke-opacity:1"
       d="m 472.5424,264.06184 c -0.93172,0.94555 -1.49938,0.43894 -1.72692,3.87313 -0.0988,1.08855 -0.30631,1.82979 -0.1035,2.89838 0.59493,3.13452 0.90354,3.47959 3.95926,4.3704"
       id="use9138"
       sodipodi:nodetypes="ccsc" /><path
       style="fill:#8f8f8f;fill-opacity:1;stroke:none;stroke-width:0.987958;stroke-linecap:round;stroke-dasharray:none;stroke-opacity:1"
       d="m 469.41262,294.33984 c 0.69725,-5.60494 0.84036,-15.83003 0.22834,-21.46135 l 1.039,-1.07067 0.83333,1.11817 c -0.47596,5.54655 -0.36243,15.71716 0.29894,21.41381 z"
       id="path9140"
       sodipodi:nodetypes="cccccc" /><path
       style="fill:#ffffff;fill-opacity:1;stroke:none;stroke-width:1.2;stroke-linecap:round;stroke-dasharray:none;stroke-opacity:1"
       d="m 246.9581,-33.865582 h 4.15952 v 16.521157 h -3.79874 z"
       id="path4629" /><path
       id="path4631"
       style="fill:#ffffff;fill-opacity:1;stroke:none;stroke-width:1.9;stroke-linecap:round;stroke-dasharray:none;stroke-opacity:1"
       d="m 220.7993,-46.931339 c -1.09507,3.476905 -2.56943,9.537701 -1.54327,14.551489 1.62001,7.915227 9.82358,10.103343 13.08603,14.373283 2.47541,1.799158 13.34374,2.430359 16.78863,1.795239 3.44491,0.63512 14.31322,0.0039 16.78864,-1.795239 3.26245,-4.26994 11.46601,-6.458057 13.08602,-14.373283 1.00772,-4.923636 -0.39598,-10.856966 -1.48385,-14.36145 -7.46977,2.200715 -12.73939,10.082423 -28.37162,10.085132 -19.49003,0.0034 -27.30054,-13.592947 -28.35058,-10.275171 z"
       sodipodi:nodetypes="cscccscsc" /><path
       style="fill:#cccccc;fill-opacity:1;stroke:none;stroke-width:1;stroke-linecap:round;stroke-dasharray:none;stroke-opacity:1"
       d="m 277.35003,-47.094384 c 1.61006,4.816181 2.84519,9.768346 0.68791,15.950912 -0.74012,4.793692 -7.7536,9.005749 -12.451,13.432541 l -7.23678,1.040056 c 13.56485,-6.469709 21.0925,-17.033884 14.47459,-28.056622 1.46281,-1.245514 2.93977,-2.356304 4.52528,-2.366887 z"
       id="path6911"
       sodipodi:nodetypes="cccccc" /><path
       style="fill:#cccccc;fill-opacity:1;stroke:none;stroke-width:1;stroke-linecap:round;stroke-dasharray:none;stroke-opacity:1"
       d="m 220.91122,-47.094384 c -1.61005,4.816181 -2.84519,9.768346 -0.68791,15.950912 0.74012,4.793692 7.75361,9.005749 12.45101,13.432541 l 7.23678,1.040056 c -13.56485,-6.469709 -21.0925,-17.033884 -14.47459,-28.056622 -1.46281,-1.245514 -2.93977,-2.356304 -4.52529,-2.366887 z"
       id="path6671"
       sodipodi:nodetypes="cccccc" /><path
       style="fill:#cccccc;fill-opacity:1;stroke:none;stroke-width:1;stroke-linecap:round;stroke-dasharray:none;stroke-opacity:1"
       d="m 246.87283,-15.749435 5.16736,-0.311899 c -0.9599,-15.552983 7.84325,-13.788986 9.54003,-22.28433 -8.18309,5.867143 -15.71669,8.346429 -24.32621,0.237184 1.29302,9.29032 9.034,3.547464 9.61882,22.359045 z"
       id="path6615"
       sodipodi:nodetypes="ccccc" /><path
       style="fill:#808080;fill-opacity:1;stroke:none;stroke-width:1.9;stroke-linecap:round;stroke-dasharray:none;stroke-opacity:1"
       d="m 274.74633,-46.224102 c -0.26618,4.27703 -3.7641,5.786998 -4.28883,8.102013 1.53469,-2.445376 7.14743,-4.652387 7.06375,-7.827793 l -0.18971,-1.768487 z"
       id="path4996"
       sodipodi:nodetypes="ccccc" /><path
       style="fill:#808080;fill-opacity:1;stroke:none;stroke-width:1.9;stroke-linecap:round;stroke-dasharray:none;stroke-opacity:1"
       d="m 222.43417,-47.201673 c 0.26618,4.27703 4.84491,6.764569 5.36964,9.079584 -1.53469,-2.445376 -7.14743,-4.652387 -7.06375,-7.827793 l 0.18971,-1.768487 z"
       id="path4637"
       sodipodi:nodetypes="ccccc" /><path
       style="fill:none;fill-opacity:1;stroke:#808080;stroke-width:1;stroke-linecap:round;stroke-dasharray:none;stroke-opacity:1"
       d="m 222.24319,-47.140633 c 10.12423,6.008462 10.91669,10.625588 26.89495,10.272193 15.65521,-0.34625 16.8806,-3.663516 26.59135,-9.344934"
       id="path4633"
       sodipodi:nodetypes="csc" /><path
       id="path4635"
       style="color:#000000;fill:#808080;fill-opacity:1;stroke-linecap:round;-inkscape-stroke:none"
       d="m 238.20991,-38.307141 c 0.0375,-9.38e-4 -0.075,0.0034 -0.11162,0.01137 -0.27019,0.0577 -0.44237,0.115876 -0.38447,0.386027 0.4601,2.142725 2.10028,3.387444 3.62303,4.167704 0.76138,0.390132 1.5055,0.673836 2.08566,0.907955 0.58016,0.23412 1.01139,0.49836 1.00821,0.494544 l 0.0191,0.02325 0.0217,0.0217 c 1.02404,0.960052 1.65852,1.441404 2.57711,1.826762 1.39546,4.820475 1.56495,8.984352 0.88212,14.473535 h 2.39933 c -0.64844,-5.585353 -0.97888,-9.534669 0.44339,-14.304036 1.17482,-0.420141 1.83743,-0.890999 3.01635,-1.996261 l 0.0217,-0.0217 0.0191,-0.02325 c -0.003,0.0038 0.42805,-0.259907 1.00821,-0.494027 0.58016,-0.234121 1.32429,-0.518341 2.08566,-0.908472 1.52276,-0.780259 3.16293,-2.02498 3.62304,-4.167704 0.0579,-0.270155 -0.11428,-0.536063 -0.38448,-0.593762 -0.27015,-0.0579 -0.53606,0.114279 -0.59376,0.384473 -0.3749,1.745892 -1.69887,2.767839 -3.10162,3.486608 -0.70137,0.359386 -1.41091,0.631406 -2.00401,0.870748 -0.57866,0.233515 -1.03195,0.360571 -1.37459,0.752409 -1.52179,1.425711 -1.8392,1.590395 -3.95842,2.172477 -2.11921,-0.582082 -2.43662,-0.746765 -3.95841,-2.172477 -0.34274,-0.391838 -0.79801,-0.518894 -1.37666,-0.752409 -0.5931,-0.239342 -1.30058,-0.511362 -2.00195,-0.870748 -1.40275,-0.718768 -2.72672,-1.532982 -3.10162,-3.278873 -0.0486,-0.228318 -0.7155,-0.390008 -0.48214,-0.395842 z"
       sodipodi:nodetypes="sccssccccccccccsscccsscccsscss" /><path
       id="path4641"
       style="fill:none;fill-opacity:1;stroke:#000000;stroke-width:1.9;stroke-linecap:round;stroke-dasharray:none;stroke-opacity:1"
       d="m 220.7993,-46.931339 c -1.09507,3.476905 -2.56943,9.537701 -1.54327,14.551489 1.62001,7.915227 9.82358,10.103343 13.08603,14.373283 2.47541,1.799158 13.34374,2.430359 16.78863,1.795239 3.44491,0.63512 14.31322,0.0039 16.78864,-1.795239 3.26245,-4.26994 11.46601,-6.458057 13.08602,-14.373283 1.00772,-4.923636 -0.39598,-10.856966 -1.48385,-14.36145"
       sodipodi:nodetypes="cscccsc" /><path
       style="fill:none;stroke:#808080;stroke-width:1;stroke-linecap:round;stroke-opacity:1"
       d="m 462.90818,66.335142 c 5.31977,2.113483 10.69755,1.815311 16.11182,0"
       id="path9405"
       sodipodi:nodetypes="cc" /><path
       id="path9403"
       style="fill:none;fill-opacity:1;stroke:#000000;stroke-width:1.9;stroke-linecap:round;stroke-dasharray:none;stroke-opacity:1"
       d="m 462.81336,66.383028 c -0.50714,1.60571 -1.47057,3.116927 -1.82139,4.551127 -0.31436,1.752604 -1.59564,4.824996 -1.18442,9.408211 0.43867,3.004546 1.73102,6.521199 2.50837,9.902755 2.3722,2.248216 5.3788,2.683872 8.58449,1.965254 3.2057,0.718618 6.21229,0.282962 8.58449,-1.965254 0.77735,-3.381556 2.06971,-6.898209 2.50837,-9.902755 0.41122,-4.583215 -0.87058,-7.655607 -1.18494,-9.408211 -0.4655,-1.699203 -1.29722,-3.216495 -1.8204,-4.551127"
       sodipodi:nodetypes="ccccccccc" /><rect
       style="display:inline;fill:#b3b3b3;fill-opacity:1;stroke:none;stroke-width:1.6;stroke-linecap:round"
       id="rect10324"
       width="90.311111"
       height="90.311111"
       x="537.93109"
       y="3.4159257"
       inkscape:export-filename="legs_gen3/thin_body_pants_south.png"
       inkscape:export-xdpi="72.000008"
       inkscape:export-ydpi="72.000008" /><path
       style="fill:#ffffff;fill-opacity:1;stroke:#000000;stroke-width:1.9;stroke-linecap:round;stroke-dasharray:none;stroke-opacity:1"
       d="m 573.17853,70.934304 c -0.31436,1.752606 -1.59578,4.824996 -1.18456,9.408215 0.43867,3.004549 1.73079,6.520883 2.50814,9.902442 2.3722,2.248219 5.37888,2.684155 8.58458,1.965537 V 75.852889"
       id="path10330"
       sodipodi:nodetypes="ccccc" /><path
       style="fill:#ffffff;fill-opacity:1;stroke:#000000;stroke-width:1.9;stroke-linecap:round;stroke-dasharray:none;stroke-opacity:1"
       d="m 592.99485,70.934304 c 0.31436,1.752606 1.59578,4.824996 1.18456,9.408215 -0.43867,3.004549 -1.73079,6.520883 -2.50814,9.902442 -2.3722,2.248219 -5.37888,2.684155 -8.58458,1.965537 V 75.852889"
       id="use10334"
       sodipodi:nodetypes="ccccc" /><path
       style="fill:#ffffff;fill-opacity:1;stroke:none;stroke-width:1.2;stroke-linecap:round;stroke-dasharray:none;stroke-opacity:1"
       d="m 580.91416,74.556139 h 4.15952 v 16.521157 h -3.79874 z"
       id="path10336" /><path
       id="path10338"
       style="fill:#ffffff;fill-opacity:1;stroke:none;stroke-width:1.9;stroke-linecap:round;stroke-dasharray:none;stroke-opacity:1"
       d="m 574.99938,66.383028 c -0.50714,1.60571 -1.47057,3.116927 -1.82139,4.551127 -0.31436,1.752604 -1.59564,4.824996 -1.18442,9.408211 0.43867,3.004546 1.73102,6.521199 2.50837,9.902755 2.3722,2.248216 5.3788,2.683872 8.58449,1.965254 3.2057,0.718618 6.21229,0.282962 8.58449,-1.965254 0.77735,-3.381556 2.06971,-6.898209 2.50837,-9.902755 0.41122,-4.583215 -0.87058,-7.655607 -1.18494,-9.408211 -0.4655,-1.699203 -1.29722,-3.216495 -1.8204,-4.551127 -5.36959,1.838059 -10.75817,2.084044 -16.17457,0 z"
       sodipodi:nodetypes="cccccccccc" /><path
       style="fill:#cccccc;fill-opacity:1;stroke:none;stroke-width:1;stroke-linecap:round;stroke-opacity:1"
       d="m 573.77886,71.805008 c -0.89537,11.227144 2.90717,12.958111 2.73024,19.143802 l -1.74073,-0.860271 c -4.4673,-11.591756 -2.33851,-14.419602 -0.98951,-18.283531 z"
       id="path10697"
       sodipodi:nodetypes="cccc" /><path
       style="fill:#cccccc;fill-opacity:1;stroke:none;stroke-width:1;stroke-linecap:round;stroke-opacity:1"
       d="m 588.84868,66.907496 c -5.37245,6.837498 -4.17682,16.137112 -4.50557,24.860697 l -2.28581,-0.143481 c -0.6445,-8.231173 0.98648,-16.828819 -4.34861,-24.304558 0.73497,0.729584 1.25411,0.34168 1.97089,0.740106 2.18055,3.765461 5.31426,2.914702 7.21748,-0.234298 0.50226,-0.391172 1.43313,-0.38084 1.95162,-0.918466 z"
       id="path10626"
       sodipodi:nodetypes="ccccccc" /><path
       style="fill:none;fill-opacity:1;stroke:#808080;stroke-width:1;stroke-linecap:round;stroke-dasharray:none;stroke-opacity:1"
       d="m 580.20312,69.723388 c 1.58602,1.486928 0.61757,2.152137 2.88357,2.771583"
       id="path10340"
       sodipodi:nodetypes="cc" /><path
       style="fill:none;fill-opacity:1;stroke:#808080;stroke-width:1;stroke-linecap:round;stroke-dasharray:none;stroke-opacity:1"
       d="m 585.97026,69.723388 c -1.58602,1.486928 -0.61757,2.152137 -2.88357,2.771583"
       id="path10342"
       sodipodi:nodetypes="cc" /><path
       style="fill:#808080;fill-opacity:1;stroke:none;stroke-width:0.987958;stroke-linecap:round;stroke-dasharray:none;stroke-opacity:1"
       d="m 581.88681,92.427443 c 0.69725,-5.60495 0.84036,-14.160718 0.22835,-19.792038 l 1.87232,0.04753 c -0.47596,5.546556 -0.36242,14.047847 0.29894,19.744496 z"
       id="path10344"
       sodipodi:nodetypes="ccccc" /><path
       style="fill:none;stroke:#808080;stroke-width:1;stroke-linecap:round;stroke-opacity:1"
       d="m 575.0942,66.335142 c 5.31977,2.113483 10.69755,1.815311 16.11182,0"
       id="path10346"
       sodipodi:nodetypes="cc" /><path
       style="fill:#cccccc;fill-opacity:1;stroke:none;stroke-width:1;stroke-linecap:round;stroke-opacity:1"
       d="m 592.39449,71.805008 c 0.89537,11.227144 -2.90717,12.958111 -2.73024,19.143802 l 1.74073,-0.860271 c 4.4673,-11.591756 2.33851,-14.419602 0.98951,-18.283531 z"
       id="path10699"
       sodipodi:nodetypes="cccc" /><path
       id="path10348"
       style="fill:none;fill-opacity:1;stroke:#000000;stroke-width:2.5;stroke-linecap:round;stroke-dasharray:none;stroke-opacity:1"
       d="m 574.99938,66.383028 c -0.50714,1.60571 -1.47057,3.116927 -1.82139,4.551127 -0.31436,1.752604 -1.59564,4.824996 -1.18442,9.408211 0.43867,3.004546 1.73102,6.521199 2.50837,9.902755 2.3722,2.248216 5.3788,2.683872 8.58449,1.965254 3.2057,0.718618 6.21229,0.282962 8.58449,-1.965254 0.77735,-3.381556 2.06971,-6.898209 2.50837,-9.902755 0.41122,-4.583215 -0.87058,-7.655607 -1.18494,-9.408211 -0.4655,-1.699203 -1.29722,-3.216495 -1.8204,-4.551127"
       sodipodi:nodetypes="ccccccccc" /><path
       style="fill:none;fill-opacity:1;stroke:#8f8f8f;stroke-width:1;stroke-linecap:round;stroke-opacity:1"
       d="m 463.28057,263.41527 c 4.88006,0.36333 9.81185,0.32709 14.77875,-0.12847"
       id="path14356"
       sodipodi:nodetypes="cc" /><path
       id="path14354"
       style="fill:none;fill-opacity:1;stroke:#000000;stroke-width:1.9;stroke-linecap:round;stroke-dasharray:none;stroke-opacity:1"
       d="m 462.68421,263.36205 -0.0548,1.73856 c -1.04408,2.64441 -4.0844,9.10224 -3.55689,15.26109 0.43867,3.00455 1.69951,7.563 2.47685,10.94455 2.90228,3.76076 5.8693,3.37829 9.06302,2.81688 3.19371,0.56141 6.16125,0.94388 9.06353,-2.81688 0.77735,-3.38155 2.03766,-7.94 2.47633,-10.94455 0.52751,-6.15885 -2.51281,-12.61668 -3.55689,-15.26109 l 0.0101,-1.94913"
       sodipodi:nodetypes="ccccccccc" /><rect
       style="display:inline;fill:#b3b3b3;fill-opacity:1;stroke:none;stroke-width:1.6;stroke-linecap:round"
       id="rect14550"
       width="90.311111"
       height="90.311111"
       x="537.05737"
       y="205.32832"
       inkscape:export-filename="legs_gen3/thin_body_pants_north.png"
       inkscape:export-xdpi="72.000008"
       inkscape:export-ydpi="72.000008" /><path
       style="fill:#ffffff;fill-opacity:1;stroke:#000000;stroke-width:1.9;stroke-linecap:round;stroke-dasharray:none;stroke-opacity:1"
       d="m 574.26531,263.34965 c 0.0313,0.16141 0.20004,1.155 -0.0354,1.75121 -1.04408,2.64441 -4.08421,9.1021 -3.5567,15.26095 0.43867,3.00455 1.69922,7.56277 2.47657,10.94432 2.90228,3.76076 5.86941,3.37817 9.06313,2.81676 v -16.35761"
       id="path14556"
       sodipodi:nodetypes="cscccc" /><path
       style="fill:#ffffff;fill-opacity:1;stroke:#000000;stroke-width:1.9;stroke-linecap:round;stroke-dasharray:none;stroke-opacity:1"
       d="m 590.16058,263.34965 c -0.0313,0.16141 -0.20004,1.155 0.0354,1.75121 1.04408,2.64441 4.08421,9.1021 3.5567,15.26095 -0.43867,3.00455 -1.69922,7.56277 -2.47657,10.94432 -2.90228,3.76076 -5.86941,3.37817 -9.06313,2.81676 v -16.35761"
       id="use14560"
       sodipodi:nodetypes="cscccc" /><path
       id="path14564"
       style="fill:#ffffff;fill-opacity:1;stroke:none;stroke-width:1.9;stroke-linecap:round;stroke-dasharray:none;stroke-opacity:1"
       d="m 574.22984,265.10061 c -1.04408,2.64441 -4.0844,9.10224 -3.55689,15.26109 0.43867,3.00455 1.69951,7.563 2.47685,10.94455 2.90228,3.76076 5.8693,3.37829 9.06302,2.81688 3.19371,0.56141 6.16125,0.94388 9.06353,-2.81688 0.77735,-3.38155 2.03766,-7.94 2.47633,-10.94455 0.52751,-6.15885 -2.51281,-12.61668 -3.55689,-15.26109 l 0.0101,-1.94913 c -5.31621,0.78725 -10.6614,0.74688 -15.92123,0.21057 z"
       sodipodi:nodetypes="cccccccccc" /><path
       style="fill:#e6e6e6;fill-opacity:1;stroke:none;stroke-width:0.264583px;stroke-linecap:butt;stroke-linejoin:miter;stroke-opacity:1"
       d="m 591.62265,269.36145 2.50979,7.35183 -3.74139,15.03467 c 1.63763,-5.39531 2.74566,-10.74254 0.45329,-14.33503 -1.40766,-0.23083 -2.47418,-0.5941 -4.26433,-1.09107 -3.05846,4.68581 -1.83394,12.09319 -1.79365,17.64672 h -2.18626 l -0.14449,-25.12814 c 0.67035,2.37246 3.02624,3.14317 7.15837,3.74009 2.03128,0.21339 1.91259,-0.97095 2.00867,-3.21907 z"
       id="use61"
       sodipodi:nodetypes="cccccccccc" /><path
       style="fill:#e6e6e6;fill-opacity:1;stroke:none;stroke-width:0.264583px;stroke-linecap:butt;stroke-linejoin:miter;stroke-opacity:1"
       d="m 572.80323,269.36145 -2.50979,7.35183 3.74139,15.03467 c -1.63763,-5.39531 -2.74566,-10.74254 -0.45329,-14.33503 1.40766,-0.23083 2.47418,-0.5941 4.26433,-1.09107 3.05846,4.68581 1.83394,12.09319 1.79365,17.64672 h 2.18626 l 0.14187,-25.11891 c -0.67385,2.36523 -3.02898,3.13471 -7.15575,3.73086 -2.03128,0.21339 -1.91259,-0.97095 -2.00867,-3.21907 z"
       id="path61"
       sodipodi:nodetypes="cccccccccc" /><path
       style="fill:none;fill-opacity:1;stroke:#8f8f8f;stroke-width:1;stroke-linecap:round;stroke-dasharray:none;stroke-opacity:1"
       d="m 582.11346,270.83335 c -0.59493,3.13452 -0.90354,3.47959 -3.95926,4.3704"
       id="path14566"
       sodipodi:nodetypes="cc" /><path
       style="fill:none;fill-opacity:1;stroke:#8f8f8f;stroke-width:1;stroke-linecap:round;stroke-dasharray:none;stroke-opacity:1"
       d="m 582.31243,270.83335 c 0.59493,3.13452 0.90354,3.47959 3.95926,4.3704"
       id="path14568"
       sodipodi:nodetypes="cc" /><path
       style="fill:#8f8f8f;fill-opacity:1;stroke:none;stroke-width:0.987958;stroke-linecap:round;stroke-dasharray:none;stroke-opacity:1"
       d="m 581.01307,294.33984 c 0.69725,-5.60494 0.84036,-15.83003 0.22834,-21.46135 l 1.039,-1.07067 0.83333,1.11817 c -0.47596,5.54655 -0.36243,15.71716 0.29894,21.41381 z"
       id="path14570"
       sodipodi:nodetypes="cccccc" /><path
       style="fill:none;fill-opacity:1;stroke:#8f8f8f;stroke-width:1;stroke-linecap:round;stroke-opacity:1"
       d="m 574.88102,263.41527 c 4.88006,0.36333 9.81185,0.32709 14.77875,-0.12847"
       id="path14572"
       sodipodi:nodetypes="cc" /><path
       id="path14574"
       style="fill:none;fill-opacity:1;stroke:#000000;stroke-width:2.5;stroke-linecap:round;stroke-dasharray:none;stroke-opacity:1"
       d="m 574.28466,263.36205 -0.0548,1.73856 c -1.04408,2.64441 -4.0844,9.10224 -3.55689,15.26109 0.43867,3.00455 1.69951,7.563 2.47685,10.94455 2.90228,3.76076 5.8693,3.37829 9.06302,2.81688 3.19371,0.56141 6.16125,0.94388 9.06353,-2.81688 0.77735,-3.38155 2.03766,-7.94 2.47633,-10.94455 0.52751,-6.15885 -2.51281,-12.61668 -3.55689,-15.26109 l 0.0101,-1.94913"
       sodipodi:nodetypes="ccccccccc" /><rect
       style="fill:#b3b3b3;fill-opacity:1;stroke:none;stroke-width:1.6;stroke-linecap:round"
       id="rect10"
       width="90.311111"
       height="90.311111"
       x="106.34496"
       y="1.6279085" /><use
       x="0"
       y="0"
       xlink:href="#path10"
       id="use18"
       transform="matrix(-1,0,0,1,303.00104,0)" /><use
       x="0"
       y="0"
       xlink:href="#path24"
       id="use24"
       transform="matrix(-1,0,0,1,303.00102,0)" /><use
       x="0"
       y="0"
       xlink:href="#path22"
       id="use23"
       transform="matrix(-1,0,0,1,303.00104,0)" /><use
       x="0"
       y="0"
       xlink:href="#path12"
       id="use22"
       transform="matrix(-1,0,0,1,303.00102,0)" /><use
       x="0"
       y="0"
       xlink:href="#path10697-8"
       id="use29"
       transform="matrix(-1,0,0,1,303.00102,0)" /><path
       style="fill:#ffffff;fill-opacity:1;stroke:none;stroke-width:1.9;stroke-linecap:round;stroke-dasharray:none;stroke-opacity:1"
       d="m 151.50052,33.493671 c -4.85722,0.441502 -7.95583,2.167038 -7.92807,5.945171 -0.16129,4.823477 -0.21459,9.775586 -0.19478,15.56266 0.0111,3.232458 0.0905,6.484 0.0354,9.593585 -1.12204,2.902089 -2.60729,4.849832 -1.60668,7.122485 2.5686,3.120433 5.56702,4.638134 9.69412,4.616058"
       id="path10"
       sodipodi:nodetypes="ccsccc" /><path
       style="fill:#e6e6e6;stroke:none;stroke-width:0.264583px;stroke-linecap:butt;stroke-linejoin:miter;stroke-opacity:1"
       d="m 151.66008,52.785034 c -1.71236,-0.381265 -4.80287,2.897346 -7.11242,2.718044 -0.0877,2.417426 0.73581,1.40494 1.71228,4.093796 l 0.28084,0.829131 c 0.23176,-1.891155 1.59011,-4.763664 5.03489,-4.680347 z"
       id="path22"
       sodipodi:nodetypes="cccccc" /><path
       style="fill:#b1b1b1;fill-opacity:1;stroke:none;stroke-width:1.9;stroke-linecap:round;stroke-dasharray:none;stroke-opacity:1"
       d="m 143.51024,48.616657 c 0.21118,2.357895 2.06326,8.789485 2.68596,10.876723 -1.52868,1.434729 -2.0536,4.785038 -2.21641,6.237782 z"
       id="path11"
       sodipodi:nodetypes="cccc" /><path
       style="fill:#ffffff;fill-opacity:1;stroke:none;stroke-width:1.9;stroke-linecap:round;stroke-dasharray:none;stroke-opacity:1"
       d="m 141.59236,69.146286 c -0.31437,1.752606 -1.59579,4.824996 -1.18457,9.408215 0.43868,3.004549 1.73079,6.520883 2.50814,9.902442 2.3722,2.248219 5.37888,2.684155 8.58459,1.965537 V 74.064871"
       id="path12"
       sodipodi:nodetypes="ccccc" /><path
       style="fill:#efefef;fill-opacity:1;stroke:none;stroke-width:1;stroke-linecap:round;stroke-opacity:1"
       d="m 142.25063,70.207068 c -0.89537,11.22714 2.90717,12.95811 2.73024,19.1438 l -1.74073,-0.86027 c -4.4673,-11.59176 -2.33851,-14.4196 -0.98951,-18.28353 z"
       id="path10697-8"
       sodipodi:nodetypes="cccc" /><path
       style="fill:#cccccc;fill-opacity:1;stroke:none;stroke-width:1;stroke-linecap:round;stroke-opacity:1"
       d="m 157.20805,65.506407 c -5.37245,6.8375 -4.17682,16.13712 -4.50557,24.8607 l -2.28581,-0.14348 c -0.6445,-8.23117 0.98648,-16.82882 -4.34861,-24.30456 0.73497,0.72959 1.25411,0.34168 1.97089,0.74011 2.18055,3.76546 5.31426,2.9147 7.21748,-0.2343 0.50226,-0.39117 1.43313,-0.38084 1.95162,-0.91847 z"
       id="path10626-4"
       sodipodi:nodetypes="ccccccc" /><path
       style="fill:none;fill-opacity:1;stroke:#000000;stroke-width:1;stroke-linecap:round;stroke-dasharray:none;stroke-opacity:1"
       d="m 147.59976,64.48698 c 0.1405,0.870553 0.33246,2.625102 1.01718,3.44839 1.58603,1.486928 0.61758,2.152137 2.88357,2.771583"
       id="path15"
       sodipodi:nodetypes="ccc" /><use
       x="0"
       y="0"
       xlink:href="#path6642"
       id="use15"
       transform="matrix(-1,0,0,1,197.3193,-1.2279802e-7)" /><path
       style="fill:#e6e6e6;stroke:none;stroke-width:0.264583px;stroke-linecap:butt;stroke-linejoin:miter;stroke-opacity:1"
       d="m 144.0732,45.570952 c 1.9112,2.086599 5.14899,1.329526 6.86923,0.92192 -1.5712,2.716885 -4.11315,2.010289 -6.76634,2.455635 z"
       id="path24"
       sodipodi:nodetypes="cccc" /><path
       style="fill:none;fill-opacity:1;stroke:#000000;stroke-width:1.9;stroke-linecap:round;stroke-dasharray:none;stroke-opacity:1"
       d="m 151.50052,33.493671 c -4.85722,0.441502 -7.95583,2.167038 -7.92807,5.945171 -0.16129,4.823477 -0.21459,9.775586 -0.19478,15.56266 0.0111,3.232458 0.0905,6.484 0.0354,9.593585 -0.8138,2.104851 -1.68877,3.787 -1.99338,5.296551"
       id="path17"
       sodipodi:nodetypes="ccscc" /><path
       style="fill:none;fill-opacity:1;stroke:#000000;stroke-width:1.9;stroke-linecap:round;stroke-dasharray:none;stroke-opacity:1"
       d="m 141.59236,69.146286 c -0.31437,1.752606 -1.59579,4.824996 -1.18457,9.408215 0.43868,3.004549 1.73079,6.520883 2.50814,9.902442 2.3722,2.248219 5.37888,2.684155 8.58459,1.965537 V 74.064871"
       id="path18"
       sodipodi:nodetypes="ccccc" /><use
       x="0"
       y="0"
       xlink:href="#path11"
       id="use20"
       transform="matrix(-1,0,0,1,303.00102,0)" /><use
       x="0"
       y="0"
       xlink:href="#path17"
       id="use19"
       transform="matrix(-1,0,0,1,303.00102,0)" /><use
       x="0"
       y="0"
       xlink:href="#path18"
       id="use21"
       transform="matrix(-1,0,0,1,303.00104,0)" /><path
       style="fill:#cccccc;fill-opacity:1;stroke:none;stroke-width:1.2;stroke-linecap:round;stroke-dasharray:none;stroke-opacity:1"
       d="m 150.27484,72.786866 3.08473,-0.02671 c -1.2759,6.087891 -0.75559,11.202539 -0.68441,16.582884 l -2.24598,0.32522 c 0.0685,-5.616967 0.20122,-11.228501 -0.15434,-16.881404 z"
       id="path14"
       sodipodi:nodetypes="cccccc" /><path
       style="fill:#000000;fill-opacity:1;stroke:none;stroke-width:0.987958;stroke-linecap:round;stroke-dasharray:none;stroke-opacity:1"
       d="m 150.30064,90.639425 c 0.69724,-5.60495 0.84035,-14.160718 0.22834,-19.792038 l 1.87233,0.04753 c -0.47597,5.546556 -0.36243,14.047847 0.29894,19.744496 z"
       id="path16"
       sodipodi:nodetypes="ccccc" /><path
       style="fill:#cccccc;stroke:none;stroke-width:0.264583px;stroke-linecap:butt;stroke-linejoin:miter;stroke-opacity:1"
       d="m 150.96657,61.671206 c 0.45732,-1.011288 0.40383,-1.918502 0.5761,-2.944623 0.13173,0.970644 -0.003,1.936545 0.59359,2.915464 -0.36932,0.277355 -0.53152,0.589504 -0.67,0.90564 -0.0662,-0.279642 -0.056,-0.701464 -0.49969,-0.876481 z"
       id="path23"
       sodipodi:nodetypes="ccccc" /><rect
       style="display:inline;fill:#b3b3b3;fill-opacity:1;stroke:none;stroke-width:1.6;stroke-linecap:round"
       id="rect29"
       width="90.311111"
       height="90.311111"
       x="106.21551"
       y="108.38057"
       inkscape:export-filename="thin_body_east.png"
       inkscape:export-xdpi="72.000008"
       inkscape:export-ydpi="72.000008" /><path
       style="fill:#ffffff;fill-opacity:1;stroke:none;stroke-width:1.9;stroke-linecap:round;stroke-dasharray:none;stroke-opacity:1"
       d="m 144.99029,147.2498 c 2.52587,-6.43463 5.90398,-6.79473 9.78338,-5.7835 3.87504,1.0101 4.65904,4.48852 4.23488,8.69073 -0.17986,1.7819 -1.69486,8.98034 -2.54086,11.54224 -1.18707,3.59475 -0.75019,3.62701 -2.58666,7.79745 l -1.40516,5.4732 c -1.21636,3.32067 -2.06274,7.60532 -7.12867,7.43787 -3.45679,-0.92471 -3.67127,0.0609 -6.07384,-3.89028 -1.25895,-4.37772 -0.4754,-7.07197 -0.0886,-10.58683 0.95673,-4.83069 1.49539,-7.24797 2.78805,-11.39614 1.05834,-3.39624 1.94546,-6.51709 3.01744,-9.28474 z"
       id="path30"
       sodipodi:nodetypes="cssscccccscc" /><path
       style="fill:#ffffff;fill-opacity:1;stroke:none;stroke-width:1.9;stroke-linecap:round;stroke-dasharray:none;stroke-opacity:1"
       d="m 139.06452,170.37831 -6.77428,8.42445 2.64206,14.01559 c 3.34554,1.88059 5.44116,3.72693 9.33252,3.15424 l 6.44287,-13.94317 c 0.1539,-2.57678 1.12836,-4.56402 0.99463,-5.79769"
       id="path31"
       sodipodi:nodetypes="cccccc" /><path
       style="fill:#e6e6e6;stroke:none;stroke-width:0.264583px;stroke-linecap:butt;stroke-linejoin:miter;stroke-opacity:1"
       d="m 154.21528,141.76023 c -4.09482,0.999 -3.81218,3.07033 -5.04322,7.62225 -3.86795,3.55265 -4.52102,10.98685 -4.94838,19.8403 -5.38136,4.47699 -9.20431,9.87269 -6.72822,24.85689 l -2.79206,-1.57482 c -2.11705,-4.51556 -1.96724,-8.56016 -1.85226,-12.75521 0.47594,-6.03771 4.63645,-6.75328 6.85137,-9.64479 l 4.56547,-20.81496 c 1.07883,-3.50702 2.57324,-6.68928 6.27495,-8.14667 z"
       id="path38"
       sodipodi:nodetypes="cccccccccc" /><path
       style="fill:#c7c7c7;fill-opacity:1;stroke:none;stroke-width:0.264583px;stroke-linecap:butt;stroke-linejoin:miter;stroke-opacity:1"
       d="m 146.93119,144.53521 c -4.29541,11.91973 -3.18197,20.42478 -4.99835,22.6795 l -2.9046,3.65674 2.80211,-13.87233 z"
       id="path34"
       sodipodi:nodetypes="ccccc" /><path
       style="fill:#000000;fill-opacity:1;stroke:none;stroke-width:1.9;stroke-linecap:round;stroke-dasharray:none;stroke-opacity:1"
       d="m 150.61833,178.76311 c -0.0493,-2.45114 0.0418,-7.99645 -0.4473,-10.43429 0.90376,1.0755 0.77803,5.77332 2.43223,6.38047 l -1.50002,4.39278 z"
       id="path32"
       sodipodi:nodetypes="ccccc" /><path
       style="fill:#e6e6e6;stroke:none;stroke-width:0.264583px;stroke-linecap:butt;stroke-linejoin:miter;stroke-opacity:1"
       d="m 157.62194,154.71043 c -0.56923,2.56346 -2.7263,2.40693 -4.22844,1.77729 0.69863,0.9003 1.80389,2.36782 3.34493,2.22316 z"
       id="path39"
       sodipodi:nodetypes="cccc" /><path
       style="fill:none;fill-opacity:1;stroke:#000000;stroke-width:1.9;stroke-linecap:round;stroke-dasharray:none;stroke-opacity:1"
       d="m 138.81753,170.76496 c 0.0824,-1.02551 0.25814,-1.84297 0.36723,-2.83428 0.95673,-4.83069 1.49539,-7.24797 2.78805,-11.39614 1.05834,-3.39624 1.94546,-6.51709 3.01744,-9.28474 h 4e-5 c 2.52587,-6.43463 5.90398,-6.79473 9.78338,-5.7835 3.87504,1.0101 4.65904,4.48852 4.23488,8.69073 -0.17986,1.7819 -1.69486,8.98034 -2.54086,11.54224 -1.18707,3.59475 -0.75019,3.62701 -2.58666,7.79745 l -1.22775,4.78217 -0.96991,2.82234"
       id="path35"
       sodipodi:nodetypes="ccsccsssccc" /><path
       style="fill:none;fill-opacity:1;stroke:#000000;stroke-width:1.9;stroke-linecap:round;stroke-dasharray:none;stroke-opacity:1"
       d="m 139.01777,170.07104 c -3.24754,2.00874 -6.57949,5.29463 -5.65187,9.95867 -0.15655,3.5129 -0.54331,4.42538 -0.21057,11.08469 2.16888,2.49725 6.50444,6.51797 11.09478,4.28217 2.23151,-3.45234 3.84197,-6.68601 5.77249,-13.6554 0.81622,-2.53502 1.81345,-4.27577 1.67972,-5.50944"
       id="path37"
       sodipodi:nodetypes="cccccc" /><path
       style="fill:#e6e6e6;fill-opacity:1;stroke:none;stroke-width:0.264583px;stroke-linecap:butt;stroke-linejoin:miter;stroke-opacity:1"
       d="m 137.78267,172.3735 2.74249,-3.35941 0.91516,0.48981 -2.62859,3.91822 z"
       id="path1"
       sodipodi:nodetypes="ccccc" /><path
       style="fill:#ffffff;stroke:none;stroke-width:0.264583px;stroke-linecap:butt;stroke-linejoin:miter;stroke-opacity:1;fill-opacity:1"
       d="m 155.95904,156.72229 c 2.0361,-0.17338 1.7517,-3.51377 1.6838,-5.42878 z"
       id="path40"
       sodipodi:nodetypes="ccc" /><rect
       style="fill:#b3b3b3;fill-opacity:1;stroke:none;stroke-width:1.6;stroke-linecap:round"
       id="rect26"
       width="90.311111"
       height="90.311111"
       x="-196.51823"
       y="205.32852"
       transform="scale(-1,1)" /><path
       style="fill:#ffffff;fill-opacity:1;stroke:none;stroke-width:1.9;stroke-linecap:round;stroke-dasharray:none;stroke-opacity:1"
       d="m 151.36267,237.19428 c -6.59479,0 -7.47276,2.4593 -7.92682,5.99649 -0.592,4.96424 -0.30709,9.64793 -0.3249,15.1826 0.051,2.95467 0.34699,5.29545 0.3867,8.51139 0.26575,4.09476 0.27512,7.15915 0.84623,9.43895 2.5686,3.12043 2.6524,3.91445 7.01879,3.71053"
       id="path26"
       sodipodi:nodetypes="cccccc" /><path
       style="fill:#e6e6e6;fill-opacity:1;stroke:none;stroke-width:0.264583px;stroke-linecap:butt;stroke-linejoin:miter;stroke-opacity:1"
       d="m 146.11436,252.20296 c 1.91465,-0.74999 2.69804,-3.01765 1.6805,-4.50004 1.30678,-0.63686 2.43052,-0.58188 3.63213,-0.52159 v 18.73055 l -1.90507,-1.91561 c 0.94637,-0.89323 0.92724,-1.4153 0.35643,-2.60687 -0.39626,-0.68281 -0.67928,-1.12734 -2.38998,0.0561 -0.25308,0.95103 -0.94104,1.46763 -0.85784,2.33841 -1.25874,-0.12136 -1.95,0.92675 -2.74954,1.75172 l -0.44388,-5.64262 0.0517,-6.76711 z"
       id="path8"
       sodipodi:nodetypes="cccccccccccc" /><path
       style="fill:#b1b1b1;fill-opacity:1;stroke:none;stroke-width:1.9;stroke-linecap:round;stroke-dasharray:none;stroke-opacity:1"
       d="m 143.79721,248.93642 c 0.21118,2.35789 1.8131,8.34778 1.82149,10.86832 -0.14036,1.79757 -1.18913,4.79344 -1.35194,6.24618 z"
       id="path11-0"
       sodipodi:nodetypes="cccc" /><path
       style="fill:#000000;fill-opacity:1;stroke:none;stroke-width:1.9;stroke-linecap:round;stroke-dasharray:none;stroke-opacity:1"
       d="m 143.68675,252.35604 c 1.38356,-0.15418 2.58381,-0.11822 3.67994,-0.89241 -0.62371,2.01031 -3.11496,0.87785 -3.67478,3.27686 z"
       id="path27"
       sodipodi:nodetypes="cccc" /><path
       style="fill:#ffffff;fill-opacity:1;stroke:none;stroke-width:1.9;stroke-linecap:round;stroke-dasharray:none;stroke-opacity:1"
       d="m 143.41504,263.34985 c 0.0313,0.16141 0.20003,1.155 -0.0354,1.75121 -1.04408,2.64441 -4.08422,9.1021 -3.5567,15.26095 0.43867,3.00455 1.69922,7.56277 2.47657,10.94432 2.90228,3.76076 5.86941,3.37817 9.06313,2.81676 v -16.35761"
       id="path28"
       sodipodi:nodetypes="cscccc" /><path
       style="fill:#e6e6e6;fill-opacity:1;stroke:none;stroke-width:0.264583px;stroke-linecap:butt;stroke-linejoin:miter;stroke-opacity:1"
       d="m 141.95297,269.36165 -2.50979,7.35183 3.74139,15.03467 c -1.63763,-5.39531 -2.74566,-10.74254 -0.45329,-14.33503 1.40766,-0.23083 2.47418,-0.5941 4.26433,-1.09107 3.05846,4.68581 1.83394,12.09319 1.79365,17.64672 h 2.18626 l 0.32907,-27.29573 c 0.23744,4.13295 -2.1502,5.15754 -7.34295,5.90768 -2.03128,0.21339 -1.91259,-0.97095 -2.00867,-3.21907 z"
       id="path9"
       sodipodi:nodetypes="cccccccccc" /><path
       style="fill:none;fill-opacity:1;stroke:#000000;stroke-width:1.9;stroke-linecap:round;stroke-dasharray:none;stroke-opacity:1"
       d="m 151.36267,237.19428 c -6.59479,0 -7.47276,2.4593 -7.92682,5.99649 -0.592,4.96424 -0.30709,9.64793 -0.3249,15.1826 0.037,2.14101 0.26799,4.26322 0.3715,6.32611"
       id="use42"
       sodipodi:nodetypes="cccc" /><path
       style="fill:none;fill-opacity:1;stroke:#000000;stroke-width:1.9;stroke-linecap:round;stroke-dasharray:none;stroke-opacity:1"
       d="m 143.41504,263.34985 c 0.0313,0.16141 0.20003,1.155 -0.0354,1.75121 -1.04408,2.64441 -4.08422,9.1021 -3.5567,15.26095 0.43867,3.00455 1.69922,7.56277 2.47657,10.94432 2.90228,3.76076 5.86941,3.37817 9.06313,2.81676 v -16.35761"
       id="path43"
       sodipodi:nodetypes="cscccc" /><use
       x="0"
       y="0"
       xlink:href="#path26"
       id="use43"
       transform="matrix(-1,0,0,1,302.72536,0)" /><use
       x="0"
       y="0"
       xlink:href="#path8"
       id="use8"
       transform="matrix(-1,0,0,1,302.72536,0)" /><use
       x="0"
       y="0"
       xlink:href="#path11-0"
       id="use49"
       transform="matrix(-1,0,0,1,302.72536,0)" /><use
       x="0"
       y="0"
       xlink:href="#use42"
       id="use44"
       transform="matrix(-1,0,0,1,302.72536,0)" /><use
       x="0"
       y="0"
       xlink:href="#path28"
       id="use45"
       transform="matrix(-1,0,0,1,302.72536,0)" /><use
       x="0"
       y="0"
       xlink:href="#path9"
       id="use9"
       transform="matrix(-1,0,0,1,302.72536,0)" /><use
       x="0"
       y="0"
       xlink:href="#path43"
       id="use46"
       transform="matrix(-1,0,0,1,302.72536,0)" /><path
       style="fill:#e6e6e6;fill-opacity:1;stroke:none;stroke-width:1.2;stroke-linecap:round;stroke-dasharray:none;stroke-opacity:1"
       d="m 149.19014,276.46873 h 4.15952 v 16.52117 h -3.79874 z"
       id="path36" /><path
       style="fill:#000000;fill-opacity:1;stroke:none;stroke-width:0.987958;stroke-linecap:round;stroke-dasharray:none;stroke-opacity:1"
       d="m 150.16279,294.34004 c 0.69725,-5.60494 0.84036,-15.83003 0.22834,-21.46135 l 1.03901,-1.07067 0.83332,1.11817 c -0.47596,5.54655 -0.36243,15.71716 0.29894,21.41381 z"
       id="path42"
       sodipodi:nodetypes="cccccc" /><use
       x="0"
       y="0"
       xlink:href="#path27"
       id="use48"
       transform="matrix(-1,0,0,1,302.72536,0)" /><path
       style="fill:none;fill-opacity:1;stroke:#000000;stroke-width:1;stroke-linecap:round;stroke-dasharray:none;stroke-opacity:1"
       d="m 149.06042,263.62088 c 1.1545,1.57876 1.98328,0.53525 2.23969,4.40525 0.0258,1.11787 0.16589,1.73883 -0.0369,2.80742 -0.59493,3.13452 -0.90353,3.47959 -3.95926,4.3704"
       id="path41"
       sodipodi:nodetypes="ccsc" /><use
       x="0"
       y="0"
       xlink:href="#path41"
       id="use47"
       transform="matrix(-1,0,0,1,302.72536,0)" /><rect
       style="display:inline;fill:#b3b3b3;fill-opacity:1;stroke:none;stroke-width:1.6;stroke-linecap:round"
       id="rect72"
       width="90.311111"
       height="90.311111"
       x="229.82463"
       y="1.6279085"
       inkscape:export-filename="legs_gen3/Thin_body_south.png"
       inkscape:export-xdpi="72.000008"
       inkscape:export-ydpi="72.000008" /><path
       id="use72"
       style="fill:#ffffff;fill-opacity:1;stroke:none;stroke-width:1.9;stroke-linecap:round;stroke-dasharray:none;stroke-opacity:1"
       d="M 274.98011 33.493563 C 270.1229 33.935064 267.02416 35.660807 267.05192 39.438936 C 266.89063 44.262409 266.83729 49.214226 266.8571 55.001294 C 266.8682 58.233749 266.94785 61.485442 266.89275 64.595024 C 265.77071 67.49711 264.28552 69.444936 265.28613 71.717586 C 267.85473 74.838016 270.85302 76.355918 274.98011 76.333842 C 279.10721 76.355918 282.1055 74.838016 284.6741 71.717586 C 285.67471 69.444936 284.18952 67.49711 283.06748 64.595024 C 283.01238 61.485442 283.09203 58.233749 283.10313 55.001294 C 283.12294 49.214226 283.0696 44.262409 282.90831 39.438936 C 282.93607 35.660807 279.83733 33.935064 274.98011 33.493563 z " /><use
       x="0"
       y="0"
       xlink:href="#path24"
       id="use73"
       transform="matrix(-1,0,0,1,426.48068,0)" /><use
       x="0"
       y="0"
       xlink:href="#path22"
       id="use74"
       transform="matrix(-1,0,0,1,426.4807,0)" /><use
       x="0"
       y="0"
       xlink:href="#path12"
       id="use75"
       transform="matrix(-1,0,0,1,426.48068,0)" /><use
       x="0"
       y="0"
       xlink:href="#path10697-8"
       id="use76"
       transform="matrix(-1,0,0,1,426.48068,0)" /><path
       style="fill:#e6e6e6;stroke:none;stroke-width:0.264583px;stroke-linecap:butt;stroke-linejoin:miter;stroke-opacity:1"
       d="m 275.13974,52.785034 c -1.71236,-0.381265 -4.80287,2.897346 -7.11242,2.718044 -0.0877,2.417426 0.73581,1.40494 1.71228,4.093796 l 0.28084,0.829131 c 0.23176,-1.891155 1.59011,-4.763664 5.03489,-4.680347 z"
       id="path77"
       sodipodi:nodetypes="cccccc" /><path
       style="fill:#b1b1b1;fill-opacity:1;stroke:none;stroke-width:1.9;stroke-linecap:round;stroke-dasharray:none;stroke-opacity:1"
       d="m 266.9899,48.616657 c 0.21118,2.357895 2.06326,8.789485 2.68596,10.876723 -1.52868,1.434729 -2.0536,4.785038 -2.21641,6.237782 z"
       id="path78"
       sodipodi:nodetypes="cccc" /><path
       style="fill:#ffffff;fill-opacity:1;stroke:none;stroke-width:1.9;stroke-linecap:round;stroke-dasharray:none;stroke-opacity:1"
       d="m 265.07202,69.146286 c -0.31437,1.752606 -1.59579,4.824996 -1.18457,9.408215 0.43868,3.004549 1.73079,6.520883 2.50814,9.902442 2.3722,2.248219 5.37888,2.684155 8.58459,1.965537 V 74.064871"
       id="path79"
       sodipodi:nodetypes="ccccc" /><path
       style="fill:#efefef;fill-opacity:1;stroke:none;stroke-width:1;stroke-linecap:round;stroke-opacity:1"
       d="m 265.73029,70.207068 c -0.89537,11.22714 2.90717,12.95811 2.73024,19.1438 l -1.74073,-0.86027 c -4.4673,-11.59176 -2.33851,-14.4196 -0.98951,-18.28353 z"
       id="path80"
       sodipodi:nodetypes="cccc" /><path
       style="fill:#cccccc;fill-opacity:1;stroke:none;stroke-width:1;stroke-linecap:round;stroke-opacity:1"
       d="m 280.68771,65.506407 c -5.37245,6.8375 -4.17682,16.13712 -4.50557,24.8607 l -2.28581,-0.14348 c -0.6445,-8.23117 0.98648,-16.82882 -4.34861,-24.30456 0.73497,0.72959 1.25411,0.34168 1.97089,0.74011 2.18055,3.76546 5.31426,2.9147 7.21748,-0.2343 0.50226,-0.39117 1.43313,-0.38084 1.95162,-0.91847 z"
       id="path81"
       sodipodi:nodetypes="ccccccc" /><path
       style="fill:none;fill-opacity:1;stroke:#000000;stroke-width:1;stroke-linecap:round;stroke-dasharray:none;stroke-opacity:1"
       d="m 271.07942,64.48698 c 0.1405,0.870553 0.33246,2.625102 1.01718,3.44839 1.58603,1.486928 0.61758,2.152137 2.88357,2.771583"
       id="path82"
       sodipodi:nodetypes="ccc" /><use
       x="0"
       y="0"
       xlink:href="#path6642"
       id="use82"
       transform="matrix(-1,0,0,1,320.79896,-1.2279802e-7)" /><path
       style="fill:#e6e6e6;stroke:none;stroke-width:0.264583px;stroke-linecap:butt;stroke-linejoin:miter;stroke-opacity:1"
       d="m 267.55286,45.570952 c 1.9112,2.086599 5.14899,1.329526 6.86923,0.92192 -1.5712,2.716885 -4.11315,2.010289 -6.76634,2.455635 z"
       id="path83"
       sodipodi:nodetypes="cccc" /><path
       style="fill:none;fill-opacity:1;stroke:#000000;stroke-width:1.9;stroke-linecap:round;stroke-dasharray:none;stroke-opacity:1"
       d="m 274.98018,33.493671 c -4.85722,0.441502 -7.95583,2.167038 -7.92807,5.945171 -0.16129,4.823477 -0.21459,9.775586 -0.19478,15.56266 0.0111,3.232458 0.0905,6.484 0.0354,9.593585 -0.8138,2.104851 -1.68877,3.787 -1.99338,5.296551"
       id="path84"
       sodipodi:nodetypes="ccscc" /><path
       style="fill:none;fill-opacity:1;stroke:#000000;stroke-width:1.9;stroke-linecap:round;stroke-dasharray:none;stroke-opacity:1"
       d="m 265.07202,69.146286 c -0.31437,1.752606 -1.59579,4.824996 -1.18457,9.408215 0.43868,3.004549 1.73079,6.520883 2.50814,9.902442 2.3722,2.248219 5.37888,2.684155 8.58459,1.965537 V 74.064871"
       id="path85"
       sodipodi:nodetypes="ccccc" /><use
       x="0"
       y="0"
       xlink:href="#path11"
       id="use85"
       transform="matrix(-1,0,0,1,426.48068,0)" /><use
       x="0"
       y="0"
       xlink:href="#path17"
       id="use86"
       transform="matrix(-1,0,0,1,426.48068,0)" /><use
       x="0"
       y="0"
       xlink:href="#path18"
       id="use87"
       transform="matrix(-1,0,0,1,426.4807,0)" /><path
       style="fill:#cccccc;fill-opacity:1;stroke:none;stroke-width:1.2;stroke-linecap:round;stroke-dasharray:none;stroke-opacity:1"
       d="m 273.7545,72.786866 3.08473,-0.02671 c -1.2759,6.087891 -0.75559,11.202539 -0.68441,16.582884 l -2.24598,0.32522 c 0.0685,-5.616967 0.20122,-11.228501 -0.15434,-16.881404 z"
       id="path87"
       sodipodi:nodetypes="cccccc" /><path
       style="fill:#000000;fill-opacity:1;stroke:none;stroke-width:0.987958;stroke-linecap:round;stroke-dasharray:none;stroke-opacity:1"
       d="m 273.7803,90.639425 c 0.69724,-5.60495 0.84035,-14.160718 0.22834,-19.792038 l 1.87233,0.04753 c -0.47597,5.546556 -0.36243,14.047847 0.29894,19.744496 z"
       id="path88"
       sodipodi:nodetypes="ccccc" /><path
       style="fill:#cccccc;stroke:none;stroke-width:0.264583px;stroke-linecap:butt;stroke-linejoin:miter;stroke-opacity:1"
       d="m 274.44623,61.671206 c 0.45732,-1.011288 0.40383,-1.918502 0.5761,-2.944623 0.13173,0.970644 -0.003,1.936545 0.59359,2.915464 -0.36932,0.277355 -0.53152,0.589504 -0.67,0.90564 -0.0662,-0.279642 -0.056,-0.701464 -0.49969,-0.876481 z"
       id="path89"
       sodipodi:nodetypes="ccccc" /><path
       style="fill:#000000;fill-opacity:1;stroke:none;stroke-width:1.9;stroke-linecap:round;stroke-dasharray:none;stroke-opacity:1"
       d="m 140.09413,167.82224 c 0.20815,0.42894 -0.2126,1.04641 1.01054,1.30938 -0.85251,0.57654 -2.17692,2.37433 -3.26882,2.82893 z"
       id="path33"
       sodipodi:nodetypes="cccc" /><rect
       style="display:inline;fill:#b3b3b3;fill-opacity:1;stroke:none;stroke-width:1.6;stroke-linecap:round"
       id="rect2"
       width="90.311111"
       height="90.311111"
       x="229.78111"
       y="108.38057"
       inkscape:export-filename="legs_gen3/thin_body_east.png"
       inkscape:export-xdpi="72.000008"
       inkscape:export-ydpi="72.000008" /><path
       style="fill:#ffffff;fill-opacity:1;stroke:none;stroke-width:1.9;stroke-linecap:round;stroke-dasharray:none;stroke-opacity:1"
       d="m 268.5559,147.2498 c 2.52587,-6.43463 5.90398,-6.79473 9.78338,-5.7835 3.87504,1.0101 4.65904,4.48852 4.23488,8.69073 -0.17986,1.7819 -1.69486,8.98034 -2.54086,11.54224 -1.18707,3.59475 -0.75019,3.62701 -2.58666,7.79745 l -1.40516,5.4732 c -1.21636,3.32067 -2.06274,7.60532 -7.12867,7.43787 -3.45679,-0.92471 -3.67127,0.0609 -6.07384,-3.89028 -1.25895,-4.37772 -0.4754,-7.07197 -0.0886,-10.58683 0.95673,-4.83069 1.49539,-7.24797 2.78805,-11.39614 1.05834,-3.39624 1.94546,-6.51709 3.01744,-9.28474 z"
       id="path2"
       sodipodi:nodetypes="cssscccccscc" /><path
       style="fill:#ffffff;fill-opacity:1;stroke:none;stroke-width:1.9;stroke-linecap:round;stroke-dasharray:none;stroke-opacity:1"
       d="m 262.63013,170.37831 -6.77428,8.42445 2.64206,14.01559 c 3.34554,1.88059 5.44116,3.72693 9.33252,3.15424 l 6.44287,-13.94317 c 0.1539,-2.57678 1.12836,-4.56402 0.99463,-5.79769"
       id="path3"
       sodipodi:nodetypes="cccccc" /><path
       style="fill:#e6e6e6;stroke:none;stroke-width:0.264583px;stroke-linecap:butt;stroke-linejoin:miter;stroke-opacity:1"
       d="m 277.78089,141.76023 c -4.09482,0.999 -3.81218,3.07033 -5.04322,7.62225 -3.86795,3.55265 -4.52102,10.98685 -4.94838,19.8403 -5.38136,4.47699 -9.20431,9.87269 -6.72822,24.85689 l -2.79206,-1.57482 c -2.11705,-4.51556 -1.96724,-8.56016 -1.85226,-12.75521 0.47594,-6.03771 4.63645,-6.75328 6.85137,-9.64479 l 4.56547,-20.81496 c 1.07883,-3.50702 2.57324,-6.68928 6.27495,-8.14667 z"
       id="path4"
       sodipodi:nodetypes="cccccccccc" /><path
       style="fill:#c7c7c7;fill-opacity:1;stroke:none;stroke-width:0.264583px;stroke-linecap:butt;stroke-linejoin:miter;stroke-opacity:1"
       d="m 270.4968,144.53521 c -4.29541,11.91973 -3.18197,20.42478 -4.99835,22.6795 l -2.9046,3.65674 2.80211,-13.87233 z"
       id="path5"
       sodipodi:nodetypes="ccccc" /><path
       style="fill:#000000;fill-opacity:1;stroke:none;stroke-width:1.9;stroke-linecap:round;stroke-dasharray:none;stroke-opacity:1"
       d="m 274.18394,178.76311 c -0.0493,-2.45114 0.0418,-7.99645 -0.4473,-10.43429 0.90376,1.0755 0.77803,5.77332 2.43223,6.38047 l -1.50002,4.39278 z"
       id="path6"
       sodipodi:nodetypes="ccccc" /><path
       style="fill:#e6e6e6;stroke:none;stroke-width:0.264583px;stroke-linecap:butt;stroke-linejoin:miter;stroke-opacity:1"
       d="m 281.18755,154.71043 c -0.56923,2.56346 -2.7263,2.40693 -4.22844,1.77729 0.69863,0.9003 1.80389,2.36782 3.34493,2.22316 z"
       id="path7"
       sodipodi:nodetypes="cccc" /><path
       style="fill:none;fill-opacity:1;stroke:#000000;stroke-width:1.9;stroke-linecap:round;stroke-dasharray:none;stroke-opacity:1"
       d="m 262.38314,170.76496 c 0.0824,-1.02551 0.25814,-1.84297 0.36723,-2.83428 0.95673,-4.83069 1.49539,-7.24797 2.78805,-11.39614 1.05834,-3.39624 1.94546,-6.51709 3.01744,-9.28474 h 4e-5 c 2.52587,-6.43463 5.90398,-6.79473 9.78338,-5.7835 3.87504,1.0101 4.65904,4.48852 4.23488,8.69073 -0.17986,1.7819 -1.69486,8.98034 -2.54086,11.54224 -1.18707,3.59475 -0.75019,3.62701 -2.58666,7.79745 l -1.22775,4.78217 -0.96991,2.82234"
       id="path20"
       sodipodi:nodetypes="ccsccsssccc" /><path
       style="fill:none;fill-opacity:1;stroke:#000000;stroke-width:1.9;stroke-linecap:round;stroke-dasharray:none;stroke-opacity:1"
       d="m 262.58338,170.07104 c -3.24754,2.00874 -6.57949,5.29463 -5.65187,9.95867 -0.15655,3.5129 -0.54331,4.42538 -0.21057,11.08469 2.16888,2.49725 6.50444,6.51797 11.09478,4.28217 2.23151,-3.45234 3.84197,-6.68601 5.77249,-13.6554 0.81622,-2.53502 1.81345,-4.27577 1.67972,-5.50944"
       id="path21"
       sodipodi:nodetypes="cccccc" /><path
       style="fill:#e6e6e6;fill-opacity:1;stroke:none;stroke-width:0.264583px;stroke-linecap:butt;stroke-linejoin:miter;stroke-opacity:1"
       d="m 261.34828,172.3735 2.74249,-3.35941 0.91516,0.48981 -2.62859,3.91822 z"
       id="path29"
       sodipodi:nodetypes="ccccc" /><path
       style="fill:#ffffff;fill-opacity:1;stroke:none;stroke-width:0.264583px;stroke-linecap:butt;stroke-linejoin:miter;stroke-opacity:1"
       d="m 279.52465,156.72229 c 2.0361,-0.17338 1.7517,-3.51377 1.6838,-5.42878 z"
       id="path44"
       sodipodi:nodetypes="ccc" /><path
       style="fill:#000000;fill-opacity:1;stroke:none;stroke-width:1.9;stroke-linecap:round;stroke-dasharray:none;stroke-opacity:1"
       d="m 263.65974,167.82224 c 0.20815,0.42894 -0.2126,1.04641 1.01054,1.30938 -0.85251,0.57654 -2.17692,2.37433 -3.26882,2.82893 z"
       id="path45"
       sodipodi:nodetypes="cccc" /><rect
       style="display:inline;fill:#b3b3b3;fill-opacity:1;stroke:none;stroke-width:1.6;stroke-linecap:round"
       id="rect45"
       width="90.311111"
       height="90.311111"
       x="425.45694"
       y="108.38057"
       inkscape:export-filename="thin_body_east.png"
       inkscape:export-xdpi="72.000008"
       inkscape:export-ydpi="72.000008" /><path
       style="fill:#ffffff;fill-opacity:1;stroke:none;stroke-width:1.9;stroke-linecap:round;stroke-dasharray:none;stroke-opacity:1"
       d="m 464.23172,147.2498 c 2.52587,-6.43463 5.90398,-6.79473 9.78338,-5.7835 3.87504,1.0101 4.65904,4.48852 4.23488,8.69073 -0.17986,1.7819 -1.69486,8.98034 -2.54086,11.54224 -1.18707,3.59475 -0.75019,3.62701 -2.58666,7.79745 l -1.40516,5.4732 c -1.21636,3.32067 -2.06274,7.60532 -7.12867,7.43787 -3.45679,-0.92471 -3.67127,0.0609 -6.07384,-3.89028 -1.25895,-4.37772 -0.4754,-7.07197 -0.0886,-10.58683 0.95673,-4.83069 1.49539,-7.24797 2.78805,-11.39614 1.05834,-3.39624 1.94546,-6.51709 3.01744,-9.28474 z"
       id="path46"
       sodipodi:nodetypes="cssscccccscc" /><path
       style="fill:#ffffff;fill-opacity:1;stroke:none;stroke-width:1.9;stroke-linecap:round;stroke-dasharray:none;stroke-opacity:1"
       d="m 458.30595,170.37831 -6.77428,8.42445 2.64206,14.01559 c 3.34554,1.88059 5.44116,3.72693 9.33252,3.15424 l 6.44287,-13.94317 c 0.1539,-2.57678 1.12836,-4.56402 0.99463,-5.79769"
       id="path47"
       sodipodi:nodetypes="cccccc" /><path
       style="fill:#e6e6e6;stroke:none;stroke-width:0.264583px;stroke-linecap:butt;stroke-linejoin:miter;stroke-opacity:1"
       d="m 473.45671,141.76023 c -4.09482,0.999 -3.81218,3.07033 -5.04322,7.62225 -3.86795,3.55265 -4.52102,10.98685 -4.94838,19.8403 -5.38136,4.47699 -9.20431,9.87269 -6.72822,24.85689 l -2.79206,-1.57482 c -2.11705,-4.51556 -1.96724,-8.56016 -1.85226,-12.75521 0.47594,-6.03771 4.63645,-6.75328 6.85137,-9.64479 l 4.56547,-20.81496 c 1.07883,-3.50702 2.57324,-6.68928 6.27495,-8.14667 z"
       id="path55"
       sodipodi:nodetypes="cccccccccc" /><path
       style="fill:#c7c7c7;fill-opacity:1;stroke:none;stroke-width:0.264583px;stroke-linecap:butt;stroke-linejoin:miter;stroke-opacity:1"
       d="m 466.17262,144.53521 c -4.29541,11.91973 -3.18197,20.42478 -4.99835,22.6795 l -2.9046,3.65674 2.80211,-13.87233 z"
       id="path56"
       sodipodi:nodetypes="ccccc" /><path
       style="fill:#000000;fill-opacity:1;stroke:none;stroke-width:1.9;stroke-linecap:round;stroke-dasharray:none;stroke-opacity:1"
       d="m 469.85976,178.76311 c -0.0493,-2.45114 0.0418,-7.99645 -0.4473,-10.43429 0.90376,1.0755 0.77803,5.77332 2.43223,6.38047 l -1.50002,4.39278 z"
       id="path57"
       sodipodi:nodetypes="ccccc" /><path
       style="fill:#e6e6e6;stroke:none;stroke-width:0.264583px;stroke-linecap:butt;stroke-linejoin:miter;stroke-opacity:1"
       d="m 476.86337,154.71043 c -0.56923,2.56346 -2.7263,2.40693 -4.22844,1.77729 0.69863,0.9003 1.80389,2.36782 3.34493,2.22316 z"
       id="path63"
       sodipodi:nodetypes="cccc" /><path
       id="path10807"
       style="fill:#f4d7d7;fill-opacity:1;stroke:none;stroke-width:1.9;stroke-linecap:round;stroke-dasharray:none;stroke-opacity:1"
       d="m 458.57165,169.68322 c -1.55487,2.53066 -5.3623,2.29811 -5.95541,8.08063 -0.15829,5.32072 -0.64614,7.33971 0.50976,14.15397 3.94152,3.60525 7.90943,4.6819 10.44812,3.50089 2.40609,-5.06753 4.36632,-10.18393 5.92282,-14.81069 0.58482,-1.73841 1.60368,-3.08486 1.84968,-4.26164 0.31885,-0.84524 0.35722,-1.36862 0.65361,-2.17775 -3.78759,0.57754 -8.45569,-1.17619 -13.42854,-4.48541 z"
       sodipodi:nodetypes="ccccscccc" /><path
       style="fill:none;fill-opacity:1;stroke:#000000;stroke-width:1.9;stroke-linecap:round;stroke-dasharray:none;stroke-opacity:1"
       d="m 458.05896,170.76496 c 0.0824,-1.02551 0.25814,-1.84297 0.36723,-2.83428 0.95673,-4.83069 1.49539,-7.24797 2.78805,-11.39614 1.05834,-3.39624 1.94546,-6.51709 3.01744,-9.28474 h 4e-5 c 2.52587,-6.43463 5.90398,-6.79473 9.78338,-5.7835 3.87504,1.0101 4.65904,4.48852 4.23488,8.69073 -0.17986,1.7819 -1.69486,8.98034 -2.54086,11.54224 -1.18707,3.59475 -0.75019,3.62701 -2.58666,7.79745 l -1.22775,4.78217 -0.96991,2.82234"
       id="path64"
       sodipodi:nodetypes="ccsccsssccc" /><path
       style="fill:none;fill-opacity:1;stroke:#000000;stroke-width:1.9;stroke-linecap:round;stroke-dasharray:none;stroke-opacity:1"
       d="m 458.2592,170.07104 c -3.24754,2.00874 -6.57949,5.29463 -5.65187,9.95867 -0.15655,3.5129 -0.54331,4.42538 -0.21057,11.08469 2.16888,2.49725 6.50444,6.51797 11.09478,4.28217 2.23151,-3.45234 3.84197,-6.68601 5.77249,-13.6554 0.81622,-2.53502 1.81345,-4.27577 1.67972,-5.50944"
       id="path65"
       sodipodi:nodetypes="cccccc" /><path
       style="fill:#e6e6e6;fill-opacity:1;stroke:none;stroke-width:0.264583px;stroke-linecap:butt;stroke-linejoin:miter;stroke-opacity:1"
       d="m 457.0241,172.3735 2.74249,-3.35941 0.91516,0.48981 -2.62859,3.91822 z"
       id="path66"
       sodipodi:nodetypes="ccccc" /><path
       style="fill:#ffffff;fill-opacity:1;stroke:none;stroke-width:0.264583px;stroke-linecap:butt;stroke-linejoin:miter;stroke-opacity:1"
       d="m 475.20047,156.72229 c 2.0361,-0.17338 1.7517,-3.51377 1.6838,-5.42878 z"
       id="path67"
       sodipodi:nodetypes="ccc" /><path
       style="fill:#000000;fill-opacity:1;stroke:none;stroke-width:1.9;stroke-linecap:round;stroke-dasharray:none;stroke-opacity:1"
       d="m 459.33556,167.82224 c 0.20815,0.42894 -0.2126,1.04641 1.01054,1.30938 -0.85251,0.57654 -2.17692,2.37433 -3.26882,2.82893 z"
       id="path68"
       sodipodi:nodetypes="cccc" /><path
       style="fill:#000000;fill-opacity:1;stroke:none;stroke-width:1.9;stroke-linecap:round;stroke-dasharray:none;stroke-opacity:1"
       d="m 470.37958,176.46624 c -0.0913,-1.31478 -0.32239,-1.35017 -0.96712,-2.36986 1.21145,0.18472 1.90124,-0.49206 3.17299,-0.57054 l -1.72096,3.27936 z"
       id="path9102"
       sodipodi:nodetypes="ccccc" /><path
       style="fill:#000000;fill-opacity:1;stroke:none;stroke-width:1.9;stroke-linecap:round;stroke-dasharray:none;stroke-opacity:1"
       d="m 458.56434,170.1509 c 0.20815,0.42894 0.17071,0.34621 1.39384,0.60918 -0.85258,0.57623 -2.35554,0.74498 -2.96785,1.36678 z"
       id="path9104"
       sodipodi:nodetypes="cccc" /><path
       style="fill:none;fill-opacity:1;stroke:#808080;stroke-width:1;stroke-linecap:round;stroke-opacity:1"
       d="m 458.60434,169.988 c 3.85768,2.0886 7.80049,4.305 12.85292,4.20749"
       id="path10816"
       sodipodi:nodetypes="cc" /><rect
       style="display:inline;fill:#b3b3b3;fill-opacity:1;stroke:none;stroke-width:1.6;stroke-linecap:round"
       id="rect68"
       width="90.311111"
       height="90.311111"
       x="537.29944"
       y="108.38057"
       inkscape:export-filename="legs_gen3/thin_pants_east.png"
       inkscape:export-xdpi="72.000008"
       inkscape:export-ydpi="72.000008" /><path
       style="fill:#ffffff;fill-opacity:1;stroke:none;stroke-width:1.9;stroke-linecap:round;stroke-dasharray:none;stroke-opacity:1"
       d="m 570.14845,170.37831 -6.77428,8.42445 2.64206,14.01559 c 3.34554,1.88059 5.44116,3.72693 9.33252,3.15424 l 6.44287,-13.94317 c 0.1539,-2.57678 1.12836,-4.56402 0.99463,-5.79769"
       id="path70"
       sodipodi:nodetypes="cccccc" /><path
       id="path75"
       style="fill:#ffffff;fill-opacity:1;stroke:none;stroke-width:1.9;stroke-linecap:round;stroke-dasharray:none;stroke-opacity:1"
       d="m 570.41415,169.68322 c -1.55487,2.53066 -5.3623,2.29811 -5.95541,8.08063 -0.15829,5.32072 -0.64614,7.33971 0.50976,14.15397 3.94152,3.60525 7.90943,4.6819 10.44812,3.50089 2.40609,-5.06753 4.36632,-10.18393 5.92282,-14.81069 0.58482,-1.73841 1.60368,-3.08486 1.84968,-4.26164 0.31885,-0.84524 0.35722,-1.36862 0.65361,-2.17775 -3.78759,0.57754 -8.45569,-1.17619 -13.42854,-4.48541 z"
       sodipodi:nodetypes="ccccscccc" /><path
       style="fill:#cccccc;fill-opacity:1;stroke:none;stroke-width:1;stroke-linecap:round;stroke-opacity:1"
       d="m 574.5432,194.88833 c 3.60357,-5.33368 3.96059,-15.88968 5.34783,-21.41234 l 2.64237,0.86797 c -0.84223,7.31678 -3.29174,14.10585 -7.9902,20.54437 z"
       id="path10905"
       sodipodi:nodetypes="cccc" /><path
       style="fill:#f4d7d7;fill-opacity:1;stroke:none;stroke-width:0.264583px;stroke-linecap:butt;stroke-linejoin:miter;stroke-opacity:1"
       d="m 568.8666,172.3735 1.66163,-2.03201 0.91516,0.48981 -1.54773,2.59082 z"
       id="path90"
       sodipodi:nodetypes="ccccc" /><path
       style="fill:#cccccc;fill-opacity:1;stroke:none;stroke-width:1;stroke-linecap:round;stroke-opacity:1"
       d="m 574.60303,172.13464 c -8.47433,6.4079 -7.06136,13.53622 -7.52394,21.32616 l -2.52932,-1.99936 c -2.01331,-5.02465 1.33711,-7.94634 0.28669,-12.87814 0.15809,-4.24697 2.32704,-6.35847 4.2607,-8.71984 z"
       id="path10903"
       sodipodi:nodetypes="cccccc" /><path
       style="fill:#000000;fill-opacity:1;stroke:none;stroke-width:1.9;stroke-linecap:round;stroke-dasharray:none;stroke-opacity:1"
       d="m 582.22208,176.46624 c -0.0913,-1.31478 -0.32239,-1.35017 -0.96712,-2.36986 1.21145,0.18472 1.63088,0.06 2.90263,-0.0184 l -1.4506,2.72726 z"
       id="path93"
       sodipodi:nodetypes="ccccc" /><path
       style="fill:#000000;fill-opacity:1;stroke:none;stroke-width:1.9;stroke-linecap:round;stroke-dasharray:none;stroke-opacity:1"
       d="m 570.40684,170.1509 c 0.20815,0.42894 0.17071,0.34621 1.39384,0.60918 -0.85258,0.57623 -2.35554,0.74498 -2.96785,1.36678 z"
       id="path94"
       sodipodi:nodetypes="cccc" /><path
       style="fill:none;fill-opacity:1;stroke:#808080;stroke-width:1;stroke-linecap:round;stroke-opacity:1"
       d="m 570.44684,169.988 c 3.85768,2.0886 7.80049,4.305 12.85292,4.20749"
       id="path95"
       sodipodi:nodetypes="cc" /><path
       style="fill:none;fill-opacity:1;stroke:#000000;stroke-width:2.5;stroke-linecap:round;stroke-dasharray:none;stroke-opacity:1"
       d="m 570.1017,170.07104 c -3.24754,2.00874 -6.57949,5.29463 -5.65187,9.95867 -0.15655,3.5129 -0.54331,4.42538 -0.21057,11.08469 2.16888,2.49725 6.50444,6.51797 11.09478,4.28217 2.23151,-3.45234 3.84197,-6.68601 5.77249,-13.6554 0.66735,-2.07264 1.45569,-3.61434 1.64798,-4.78204 0.0429,-0.2605 0.9588,-2.06131 0.9344,-2.28633"
       id="path86"
       sodipodi:nodetypes="cccccsc" /><rect
       style="display:inline;fill:#b3b3b3;fill-opacity:1;stroke:none;stroke-width:1.6;stroke-linecap:round"
       id="rect9"
       width="90.311111"
       height="90.311111"
       x="-318.97372"
       y="205.32852"
       transform="scale(-1,1)"
       inkscape:export-filename="legs_gen3/thin_body_north.png"
       inkscape:export-xdpi="72.000008"
       inkscape:export-ydpi="72.000008" /><path
       id="path13"
       style="fill:#ffffff;fill-opacity:1;stroke:none;stroke-width:1.9;stroke-linecap:round;stroke-dasharray:none;stroke-opacity:1"
       d="M 273.81791 237.19431 C 267.22313 237.19431 266.34532 239.65365 265.89126 243.19084 C 265.29926 248.15508 265.58403 252.83871 265.56622 258.37338 C 265.61722 261.32804 265.91357 263.66906 265.95328 266.885 C 266.21903 270.97976 266.22811 274.0439 266.79922 276.3237 C 269.36782 279.44413 269.45153 280.23799 273.81791 280.03407 L 273.81791 237.19431 z M 273.81843 237.19431 L 273.81843 280.03407 C 278.18481 280.23799 278.26852 279.44413 280.83712 276.3237 C 281.40823 274.0439 281.41732 270.97976 281.68306 266.885 C 281.72277 263.66906 282.01912 261.32804 282.07012 258.37338 C 282.05231 252.83871 282.33708 248.15508 281.74508 243.19084 C 281.29102 239.65365 280.41321 237.19431 273.81843 237.19431 z " /><path
       id="path19"
       style="fill:#e6e6e6;fill-opacity:1;stroke:none;stroke-width:0.264583px;stroke-linecap:butt;stroke-linejoin:miter;stroke-opacity:1"
       d="M 272.99161 247.14771 C 272.10737 247.13666 271.23025 247.22507 270.25017 247.70271 C 271.26771 249.1851 270.4843 251.45322 268.56965 252.20321 L 265.94449 253.12615 L 265.89281 259.89318 L 266.33671 265.53573 C 267.13625 264.71076 267.82716 263.66254 269.0859 263.7839 C 269.0027 262.91312 269.69065 262.39657 269.94373 261.44554 C 271.65443 260.2621 271.93751 260.7064 272.33376 261.38921 C 272.90457 262.58078 272.92357 263.10306 271.9772 263.99629 L 273.75383 265.78274 L 273.75383 265.91193 L 273.81791 265.84734 L 273.88251 265.91193 L 273.88251 265.78274 L 275.65914 263.99629 C 274.71277 263.10306 274.73177 262.58078 275.30258 261.38921 C 275.69884 260.7064 275.98191 260.2621 277.69261 261.44554 C 277.94569 262.39657 278.63364 262.91312 278.55044 263.7839 C 279.80918 263.66254 280.50009 264.71076 281.29963 265.53573 L 281.74353 259.89318 L 281.69185 253.12615 L 279.06669 252.20321 C 277.15204 251.45322 276.36863 249.1851 277.38617 247.70271 C 276.10278 247.07725 274.99536 247.11939 273.81791 247.17819 C 273.53982 247.16431 273.26508 247.15112 272.99161 247.14771 z " /><path
       style="fill:#b1b1b1;fill-opacity:1;stroke:none;stroke-width:1.9;stroke-linecap:round;stroke-dasharray:none;stroke-opacity:1"
       d="m 266.25271,248.93642 c 0.21118,2.35789 1.8131,8.34778 1.82149,10.86832 -0.14036,1.79757 -1.18913,4.79344 -1.35194,6.24618 z"
       id="path25"
       sodipodi:nodetypes="cccc" /><path
       style="fill:#000000;fill-opacity:1;stroke:none;stroke-width:1.9;stroke-linecap:round;stroke-dasharray:none;stroke-opacity:1"
       d="m 266.14225,252.35604 c 1.38356,-0.15418 2.58381,-0.11822 3.67994,-0.89241 -0.62371,2.01031 -3.11496,0.87785 -3.67478,3.27686 z"
       id="path48"
       sodipodi:nodetypes="cccc" /><path
       style="fill:#ffffff;fill-opacity:1;stroke:none;stroke-width:1.9;stroke-linecap:round;stroke-dasharray:none;stroke-opacity:1"
       d="m 265.87054,263.34985 c 0.0313,0.16141 0.20003,1.155 -0.0354,1.75121 -1.04408,2.64441 -4.08422,9.1021 -3.5567,15.26095 0.43867,3.00455 1.69922,7.56277 2.47657,10.94432 2.90228,3.76076 5.86941,3.37817 9.06313,2.81676 v -16.35761"
       id="path49"
       sodipodi:nodetypes="cscccc" /><path
       style="fill:#e6e6e6;fill-opacity:1;stroke:none;stroke-width:0.264583px;stroke-linecap:butt;stroke-linejoin:miter;stroke-opacity:1"
       d="m 264.40847,269.36165 -2.50979,7.35183 3.74139,15.03467 c -1.63763,-5.39531 -2.74566,-10.74254 -0.45329,-14.33503 1.40766,-0.23083 2.47418,-0.5941 4.26433,-1.09107 3.05846,4.68581 1.83394,12.09319 1.79365,17.64672 h 2.18626 l 0.32907,-27.29573 c 0.23744,4.13295 -2.1502,5.15754 -7.34295,5.90768 -2.03128,0.21339 -1.91259,-0.97095 -2.00867,-3.21907 z"
       id="path50"
       sodipodi:nodetypes="cccccccccc" /><path
       style="fill:none;fill-opacity:1;stroke:#000000;stroke-width:1.9;stroke-linecap:round;stroke-dasharray:none;stroke-opacity:1"
       d="m 273.81817,237.19428 c -6.59479,0 -7.47276,2.4593 -7.92682,5.99649 -0.592,4.96424 -0.30709,9.64793 -0.3249,15.1826 0.037,2.14101 0.26799,4.26322 0.3715,6.32611"
       id="path51"
       sodipodi:nodetypes="cccc" /><path
       style="fill:none;fill-opacity:1;stroke:#000000;stroke-width:1.9;stroke-linecap:round;stroke-dasharray:none;stroke-opacity:1"
       d="m 265.87054,263.34985 c 0.0313,0.16141 0.20003,1.155 -0.0354,1.75121 -1.04408,2.64441 -4.08422,9.1021 -3.5567,15.26095 0.43867,3.00455 1.69922,7.56277 2.47657,10.94432 2.90228,3.76076 5.86941,3.37817 9.06313,2.81676 v -16.35761"
       id="path52"
       sodipodi:nodetypes="cscccc" /><use
       x="0"
       y="0"
       xlink:href="#path11-0"
       id="use54"
       transform="matrix(-1,0,0,1,425.18086,0)" /><use
       x="0"
       y="0"
       xlink:href="#use42"
       id="use55"
       transform="matrix(-1,0,0,1,425.18086,0)" /><use
       x="0"
       y="0"
       xlink:href="#path28"
       id="use56"
       transform="matrix(-1,0,0,1,425.18086,0)" /><use
       x="0"
       y="0"
       xlink:href="#path9"
       id="use57"
       transform="matrix(-1,0,0,1,425.18086,0)" /><use
       x="0"
       y="0"
       xlink:href="#path43"
       id="use58"
       transform="matrix(-1,0,0,1,425.18086,0)" /><path
       style="fill:#e6e6e6;fill-opacity:1;stroke:none;stroke-width:1.2;stroke-linecap:round;stroke-dasharray:none;stroke-opacity:1"
       d="m 271.64564,276.46873 h 4.15952 v 16.52117 h -3.79874 z"
       id="path58" /><path
       style="fill:#000000;fill-opacity:1;stroke:none;stroke-width:0.987958;stroke-linecap:round;stroke-dasharray:none;stroke-opacity:1"
       d="m 272.61829,294.34004 c 0.69725,-5.60494 0.84036,-15.83003 0.22834,-21.46135 l 1.03901,-1.07067 0.83332,1.11817 c -0.47596,5.54655 -0.36243,15.71716 0.29894,21.41381 z"
       id="path59"
       sodipodi:nodetypes="cccccc" /><use
       x="0"
       y="0"
       xlink:href="#path27"
       id="use59"
       transform="matrix(-1,0,0,1,425.18086,0)" /><path
       style="fill:none;fill-opacity:1;stroke:#000000;stroke-width:1;stroke-linecap:round;stroke-dasharray:none;stroke-opacity:1"
       d="m 271.51592,263.62088 c 1.1545,1.57876 1.98328,0.53525 2.23969,4.40525 0.0258,1.11787 0.16589,1.73883 -0.0369,2.80742 -0.59493,3.13452 -0.90353,3.47959 -3.95926,4.3704"
       id="path60"
       sodipodi:nodetypes="ccsc" /><use
       x="0"
       y="0"
       xlink:href="#path41"
       id="use60"
       transform="matrix(-1,0,0,1,425.18086,0)" /><path
       style="fill:#8f8f8f;fill-opacity:1;stroke:none;stroke-width:0.264583px;stroke-linecap:butt;stroke-linejoin:miter;stroke-opacity:1"
       d="m 581.59005,270.98578 0.6148,-3.48175 0.68896,3.76191 z"
       id="path62"
       sodipodi:nodetypes="cccc" /><rect
       style="display:inline;fill:#b3b3b3;fill-opacity:1;stroke:none;stroke-width:1.6;stroke-linecap:round"
       id="rect1"
       width="90.311111"
       height="90.311111"
       x="797.89795"
       y="3.4159257"
       inkscape:export-filename="legs_gen3/flakpants/thin_body_pants_south.png"
       inkscape:export-xdpi="72.000008"
       inkscape:export-ydpi="72.000008" /><path
       style="fill:#ffffff;fill-opacity:1;stroke:#000000;stroke-width:1.9;stroke-linecap:round;stroke-dasharray:none;stroke-opacity:1"
       d="m 833.14539,70.934304 c -0.31436,1.752606 -1.59578,4.824996 -1.18456,9.408215 0.43867,3.004549 1.73079,6.520883 2.50814,9.902442 2.3722,2.248219 5.37888,2.684155 8.58458,1.965537 V 75.852889"
       id="path53"
       sodipodi:nodetypes="ccccc" /><path
       style="fill:#ffffff;fill-opacity:1;stroke:#000000;stroke-width:1.9;stroke-linecap:round;stroke-dasharray:none;stroke-opacity:1"
       d="m 852.96171,70.934304 c 0.31436,1.752606 1.59578,4.824996 1.18456,9.408215 -0.43867,3.004549 -1.73079,6.520883 -2.50814,9.902442 -2.3722,2.248219 -5.37888,2.684155 -8.58458,1.965537 V 75.852889"
       id="path54"
       sodipodi:nodetypes="ccccc" /><path
       style="fill:#ffffff;fill-opacity:1;stroke:none;stroke-width:1.2;stroke-linecap:round;stroke-dasharray:none;stroke-opacity:1"
       d="m 840.88102,74.556139 h 4.15952 v 16.521157 h -3.79874 z"
       id="path69" /><path
       id="path71"
       style="fill:#ffffff;fill-opacity:1;stroke:none;stroke-width:1.9;stroke-linecap:round;stroke-dasharray:none;stroke-opacity:1"
       d="m 834.96624,66.383028 c -0.50714,1.60571 -1.47057,3.116927 -1.82139,4.551127 -0.31436,1.752604 -1.59564,4.824996 -1.18442,9.408211 0.43867,3.004546 1.73102,6.521199 2.50837,9.902755 2.3722,2.248216 5.3788,2.683872 8.58449,1.965254 3.2057,0.718618 6.21229,0.282962 8.58449,-1.965254 0.77735,-3.381556 2.06971,-6.898209 2.50837,-9.902755 0.41122,-4.583215 -0.87058,-7.655607 -1.18494,-9.408211 -0.4655,-1.699203 -1.29722,-3.216495 -1.8204,-4.551127 -5.36959,1.838059 -10.75817,2.084044 -16.17457,0 z"
       sodipodi:nodetypes="cccccccccc" /><path
       style="fill:#cccccc;fill-opacity:1;stroke:none;stroke-width:1;stroke-linecap:round;stroke-opacity:1"
       d="m 833.74572,71.805008 c -0.89537,11.227144 2.90717,12.958111 2.73024,19.143802 l -1.74073,-0.860271 c -4.4673,-11.591756 -2.33851,-14.419602 -0.98951,-18.283531 z"
       id="path72"
       sodipodi:nodetypes="cccc" /><path
       style="fill:#8c8c8c;fill-opacity:1;stroke:none;stroke-width:0.264583px;stroke-linecap:butt;stroke-linejoin:miter;stroke-opacity:1"
       d="m 832.48301,76.938591 h 3.22704 l 3.19754,3.197553 0,5.369062 h -6.19461 z"
       id="path118"
       sodipodi:nodetypes="cccccc" /><path
       style="fill:#7f7f7f;fill-opacity:1;stroke:none;stroke-width:0.264583px;stroke-linecap:butt;stroke-linejoin:miter;stroke-opacity:1"
       d="m 832.52611,76.930617 1.16498,0.02691 c 0.36778,2.850547 1.23983,5.685302 1.88054,8.547158 l -2.17872,0.01396 z"
       id="path119"
       sodipodi:nodetypes="ccccc" /><path
       style="fill:#cccccc;fill-opacity:1;stroke:none;stroke-width:1;stroke-linecap:round;stroke-opacity:1"
       d="m 848.81554,66.907496 c -5.37245,6.837498 -4.17682,16.137112 -4.50557,24.860697 l -2.28581,-0.143481 c -0.6445,-8.231173 0.98648,-16.828819 -4.34861,-24.304558 0.73497,0.729584 1.25411,0.34168 1.97089,0.740106 2.18055,3.765461 5.31426,2.914702 7.21748,-0.234298 0.50226,-0.391172 1.43313,-0.38084 1.95162,-0.918466 z"
       id="path73"
       sodipodi:nodetypes="ccccccc" /><path
       style="fill:none;fill-opacity:1;stroke:#808080;stroke-width:1;stroke-linecap:round;stroke-dasharray:none;stroke-opacity:1"
       d="m 840.16998,69.723388 c 1.58602,1.486928 0.61757,2.152137 2.88357,2.771583"
       id="path74"
       sodipodi:nodetypes="cc" /><path
       style="fill:none;fill-opacity:1;stroke:#808080;stroke-width:1;stroke-linecap:round;stroke-dasharray:none;stroke-opacity:1"
       d="m 845.93712,69.723388 c -1.58602,1.486928 -0.61757,2.152137 -2.88357,2.771583"
       id="path76"
       sodipodi:nodetypes="cc" /><path
       style="fill:#808080;fill-opacity:1;stroke:none;stroke-width:0.987958;stroke-linecap:round;stroke-dasharray:none;stroke-opacity:1"
       d="m 841.85367,92.427443 c 0.69725,-5.60495 0.84036,-14.160718 0.22835,-19.792038 l 1.87232,0.04753 c -0.47596,5.546556 -0.36242,14.047847 0.29894,19.744496 z"
       id="path91"
       sodipodi:nodetypes="ccccc" /><path
       style="fill:none;stroke:#808080;stroke-width:1;stroke-linecap:round;stroke-opacity:1"
       d="m 835.06106,66.335142 c 5.31977,2.113483 10.69755,1.815311 16.11182,0"
       id="path92"
       sodipodi:nodetypes="cc" /><path
       style="fill:#cccccc;fill-opacity:1;stroke:none;stroke-width:1;stroke-linecap:round;stroke-opacity:1"
       d="m 852.36135,71.805008 c 0.89537,11.227144 -2.90717,12.958111 -2.73024,19.143802 l 1.74073,-0.860271 c 4.4673,-11.591756 2.33851,-14.419602 0.98951,-18.283531 z"
       id="path96"
       sodipodi:nodetypes="cccc" /><use
       x="0"
       y="0"
       xlink:href="#path118"
       id="use118"
       transform="matrix(-1,0,0,1,1686.107,0)" /><use
       x="0"
       y="0"
       xlink:href="#path119"
       id="use119"
       transform="matrix(-1,0,0,1,1686.107,0)" /><path
       id="path97"
       style="fill:none;fill-opacity:1;stroke:#000000;stroke-width:2.5;stroke-linecap:round;stroke-dasharray:none;stroke-opacity:1"
       d="m 834.96624,66.383028 c -0.50714,1.60571 -1.47057,3.116927 -1.82139,4.551127 -0.31436,1.752604 -1.59564,4.824996 -1.18442,9.408211 0.43867,3.004546 1.73102,6.521199 2.50837,9.902755 2.3722,2.248216 5.3788,2.683872 8.58449,1.965254 3.2057,0.718618 6.21229,0.282962 8.58449,-1.965254 0.77735,-3.381556 2.06971,-6.898209 2.50837,-9.902755 0.41122,-4.583215 -0.87058,-7.655607 -1.18494,-9.408211 -0.4655,-1.699203 -1.29722,-3.216495 -1.8204,-4.551127"
       sodipodi:nodetypes="ccccccccc" /><rect
       style="display:inline;fill:#b3b3b3;fill-opacity:1;stroke:none;stroke-width:1.6;stroke-linecap:round"
       id="rect97"
       width="90.311111"
       height="90.311111"
       x="797.02423"
       y="205.32832"
       inkscape:export-filename="legs_gen3/flakpants/thin_body_pants_north.png"
       inkscape:export-xdpi="72.000008"
       inkscape:export-ydpi="72.000008" /><path
       style="fill:#ffffff;fill-opacity:1;stroke:#000000;stroke-width:1.9;stroke-linecap:round;stroke-dasharray:none;stroke-opacity:1"
       d="m 834.23217,263.34965 c 0.0313,0.16141 0.20004,1.155 -0.0354,1.75121 -1.04408,2.64441 -4.08421,9.1021 -3.5567,15.26095 0.43867,3.00455 1.69922,7.56277 2.47657,10.94432 2.90228,3.76076 5.86941,3.37817 9.06313,2.81676 v -16.35761"
       id="path98"
       sodipodi:nodetypes="cscccc" /><path
       style="fill:#ffffff;fill-opacity:1;stroke:#000000;stroke-width:1.9;stroke-linecap:round;stroke-dasharray:none;stroke-opacity:1"
       d="m 850.12744,263.34965 c -0.0313,0.16141 -0.20004,1.155 0.0354,1.75121 1.04408,2.64441 4.08421,9.1021 3.5567,15.26095 -0.43867,3.00455 -1.69922,7.56277 -2.47657,10.94432 -2.90228,3.76076 -5.86941,3.37817 -9.06313,2.81676 v -16.35761"
       id="path99"
       sodipodi:nodetypes="cscccc" /><path
       id="path100"
       style="fill:#ffffff;fill-opacity:1;stroke:none;stroke-width:1.9;stroke-linecap:round;stroke-dasharray:none;stroke-opacity:1"
       d="m 834.1967,265.10061 c -1.04408,2.64441 -4.0844,9.10224 -3.55689,15.26109 0.43867,3.00455 1.69951,7.563 2.47685,10.94455 2.90228,3.76076 5.8693,3.37829 9.06302,2.81688 3.19371,0.56141 6.16125,0.94388 9.06353,-2.81688 0.77735,-3.38155 2.03766,-7.94 2.47633,-10.94455 0.52751,-6.15885 -2.51281,-12.61668 -3.55689,-15.26109 l 0.0101,-1.94913 c -5.31621,0.78725 -10.6614,0.74688 -15.92123,0.21057 z"
       sodipodi:nodetypes="cccccccccc" /><path
       style="fill:#e6e6e6;fill-opacity:1;stroke:none;stroke-width:0.264583px;stroke-linecap:butt;stroke-linejoin:miter;stroke-opacity:1"
       d="m 851.58951,269.36145 2.50979,7.35183 -3.74139,15.03467 c 1.63763,-5.39531 2.74566,-10.74254 0.45329,-14.33503 -1.40766,-0.23083 -2.47418,-0.5941 -4.26433,-1.09107 -3.05846,4.68581 -1.83394,12.09319 -1.79365,17.64672 h -2.18626 l -0.14449,-25.12814 c 0.67035,2.37246 3.02624,3.14317 7.15837,3.74009 2.03128,0.21339 1.91259,-0.97095 2.00867,-3.21907 z"
       id="path101"
       sodipodi:nodetypes="cccccccccc" /><path
       style="fill:#e6e6e6;fill-opacity:1;stroke:none;stroke-width:0.264583px;stroke-linecap:butt;stroke-linejoin:miter;stroke-opacity:1"
       d="m 832.77009,269.36145 -2.50979,7.35183 3.74139,15.03467 c -1.63763,-5.39531 -2.74566,-10.74254 -0.45329,-14.33503 1.40766,-0.23083 2.47418,-0.5941 4.26433,-1.09107 3.05846,4.68581 1.83394,12.09319 1.79365,17.64672 h 2.18626 l 0.14187,-25.11891 c -0.67385,2.36523 -3.02898,3.13471 -7.15575,3.73086 -2.03128,0.21339 -1.91259,-0.97095 -2.00867,-3.21907 z"
       id="path102"
       sodipodi:nodetypes="cccccccccc" /><path
       style="fill:none;fill-opacity:1;stroke:#8f8f8f;stroke-width:1;stroke-linecap:round;stroke-dasharray:none;stroke-opacity:1"
       d="m 842.08032,270.83335 c -0.59493,3.13452 -0.90354,3.47959 -3.95926,4.3704"
       id="path103"
       sodipodi:nodetypes="cc" /><path
       style="fill:none;fill-opacity:1;stroke:#8f8f8f;stroke-width:1;stroke-linecap:round;stroke-dasharray:none;stroke-opacity:1"
       d="m 842.27929,270.83335 c 0.59493,3.13452 0.90354,3.47959 3.95926,4.3704"
       id="path104"
       sodipodi:nodetypes="cc" /><path
       style="fill:#8f8f8f;fill-opacity:1;stroke:none;stroke-width:0.987958;stroke-linecap:round;stroke-dasharray:none;stroke-opacity:1"
       d="m 840.97993,294.33984 c 0.69725,-5.60494 0.84036,-15.83003 0.22834,-21.46135 l 1.039,-1.07067 0.83333,1.11817 c -0.47596,5.54655 -0.36243,15.71716 0.29894,21.41381 z"
       id="path105"
       sodipodi:nodetypes="cccccc" /><path
       style="fill:none;fill-opacity:1;stroke:#8f8f8f;stroke-width:1;stroke-linecap:round;stroke-opacity:1"
       d="m 834.84788,263.41527 c 4.88006,0.36333 9.81185,0.32709 14.77875,-0.12847"
       id="path106"
       sodipodi:nodetypes="cc" /><path
       id="path107"
       style="fill:none;fill-opacity:1;stroke:#000000;stroke-width:2.5;stroke-linecap:round;stroke-dasharray:none;stroke-opacity:1"
       d="m 834.25152,263.36205 -0.0548,1.73856 c -1.04408,2.64441 -4.0844,9.10224 -3.55689,15.26109 0.43867,3.00455 1.69951,7.563 2.47685,10.94455 2.90228,3.76076 5.8693,3.37829 9.06302,2.81688 3.19371,0.56141 6.16125,0.94388 9.06353,-2.81688 0.77735,-3.38155 2.03766,-7.94 2.47633,-10.94455 0.52751,-6.15885 -2.51281,-12.61668 -3.55689,-15.26109 l 0.0101,-1.94913"
       sodipodi:nodetypes="ccccccccc" /><rect
       style="display:inline;fill:#b3b3b3;fill-opacity:1;stroke:none;stroke-width:1.6;stroke-linecap:round"
       id="rect107"
       width="90.311111"
       height="90.311111"
       x="797.2663"
       y="108.38057"
       inkscape:export-filename="legs_gen3/flakpants/thin_pants_east.png"
       inkscape:export-xdpi="72.000008"
       inkscape:export-ydpi="72.000008" /><path
       style="fill:#ffffff;fill-opacity:1;stroke:none;stroke-width:1.9;stroke-linecap:round;stroke-dasharray:none;stroke-opacity:1"
       d="m 830.11531,170.37831 -6.77428,8.42445 2.64206,14.01559 c 3.34554,1.88059 5.44116,3.72693 9.33252,3.15424 l 6.44287,-13.94317 c 0.1539,-2.57678 1.12836,-4.56402 0.99463,-5.79769"
       id="path108"
       sodipodi:nodetypes="cccccc" /><path
       id="path109"
       style="fill:#ffffff;fill-opacity:1;stroke:none;stroke-width:1.9;stroke-linecap:round;stroke-dasharray:none;stroke-opacity:1"
       d="m 830.38101,169.68322 c -1.55487,2.53066 -5.3623,2.29811 -5.95541,8.08063 -0.15829,5.32072 -0.64614,7.33971 0.50976,14.15397 3.94152,3.60525 7.90943,4.6819 10.44812,3.50089 2.40609,-5.06753 4.36632,-10.18393 5.92282,-14.81069 0.58482,-1.73841 1.60368,-3.08486 1.84968,-4.26164 0.31885,-0.84524 0.35722,-1.36862 0.65361,-2.17775 -3.78759,0.57754 -8.45569,-1.17619 -13.42854,-4.48541 z"
       sodipodi:nodetypes="ccccscccc" /><path
       style="fill:#cccccc;fill-opacity:1;stroke:none;stroke-width:1;stroke-linecap:round;stroke-opacity:1"
       d="m 834.51006,194.88833 c 3.60357,-5.33368 3.96059,-15.88968 5.34783,-21.41234 l 2.64237,0.86797 c -0.84223,7.31678 -3.29174,14.10585 -7.9902,20.54437 z"
       id="path110"
       sodipodi:nodetypes="cccc" /><path
       style="fill:#8c8c8c;stroke:none;stroke-width:0.264583px;stroke-linecap:butt;stroke-linejoin:miter;stroke-opacity:1;fill-opacity:1"
       d="m 833.98092,182.72229 -4.3814,8.07099 6.37808,3.82163 3.18285,-6.13586 -1.36895,-4.2164 z"
       id="path120" /><path
       style="fill:#f4d7d7;fill-opacity:1;stroke:none;stroke-width:0.264583px;stroke-linecap:butt;stroke-linejoin:miter;stroke-opacity:1"
       d="m 828.83346,172.3735 1.66163,-2.03201 0.91516,0.48981 -1.54773,2.59082 z"
       id="path111"
       sodipodi:nodetypes="ccccc" /><path
       style="fill:#cccccc;fill-opacity:1;stroke:none;stroke-width:1;stroke-linecap:round;stroke-opacity:1"
       d="m 834.56989,172.13464 c -8.47433,6.4079 -7.06136,13.53622 -7.52394,21.32616 l -2.52932,-1.99936 c -2.01331,-5.02465 1.33711,-7.94634 0.28669,-12.87814 0.15809,-4.24697 2.32704,-6.35847 4.2607,-8.71984 z"
       id="path112"
       sodipodi:nodetypes="cccccc" /><path
       style="fill:#000000;fill-opacity:1;stroke:none;stroke-width:1.9;stroke-linecap:round;stroke-dasharray:none;stroke-opacity:1"
       d="m 842.18894,176.46624 c -0.0913,-1.31478 -0.32239,-1.35017 -0.96712,-2.36986 1.21145,0.18472 1.63088,0.06 2.90263,-0.0184 l -1.4506,2.72726 z"
       id="path113"
       sodipodi:nodetypes="ccccc" /><path
       style="fill:#000000;fill-opacity:1;stroke:none;stroke-width:1.9;stroke-linecap:round;stroke-dasharray:none;stroke-opacity:1"
       d="m 830.3737,170.1509 c 0.20815,0.42894 0.17071,0.34621 1.39384,0.60918 -0.85258,0.57623 -2.35554,0.74498 -2.96785,1.36678 z"
       id="path114"
       sodipodi:nodetypes="cccc" /><path
       style="fill:none;fill-opacity:1;stroke:#808080;stroke-width:1;stroke-linecap:round;stroke-opacity:1"
       d="m 830.4137,169.988 c 3.85768,2.0886 7.80049,4.305 12.85292,4.20749"
       id="path115"
       sodipodi:nodetypes="cc" /><path
       style="fill:#7f7f7f;stroke:none;stroke-width:0.264583px;stroke-linecap:butt;stroke-linejoin:miter;stroke-opacity:1;fill-opacity:1"
       d="m 837.9018,184.71729 -0.95609,5.86423 1.61341,-3.90357 z"
       id="path121"
       sodipodi:nodetypes="cccc" /><path
       style="fill:none;fill-opacity:1;stroke:#000000;stroke-width:2.5;stroke-linecap:round;stroke-dasharray:none;stroke-opacity:1"
       d="m 830.06856,170.07104 c -3.24754,2.00874 -6.57949,5.29463 -5.65187,9.95867 -0.15655,3.5129 -0.54331,4.42538 -0.21057,11.08469 2.16888,2.49725 6.50444,6.51797 11.09478,4.28217 2.23151,-3.45234 3.84197,-6.68601 5.77249,-13.6554 0.66735,-2.07264 1.45569,-3.61434 1.64798,-4.78204 0.0429,-0.2605 0.9588,-2.06131 0.9344,-2.28633"
       id="path116"
       sodipodi:nodetypes="cccccsc" /><path
       style="fill:#8f8f8f;fill-opacity:1;stroke:none;stroke-width:0.264583px;stroke-linecap:butt;stroke-linejoin:miter;stroke-opacity:1"
       d="m 841.55691,270.98578 0.6148,-3.48175 0.68896,3.76191 z"
       id="path117"
       sodipodi:nodetypes="cccc" /><path
       style="fill:#999999;stroke:none;stroke-width:0.264583px;stroke-linecap:butt;stroke-linejoin:miter;stroke-opacity:1"
       d="m 741.62708,56.356249 4.13508,0.646356 15.6407,4.739382 1.03462,6.777165 -8.26029,-0.117346 -4.35198,0.09792 -8.15394,-9.204027 z"
       id="path33-8"
       sodipodi:nodetypes="cccccccc" /><path
       style="fill:#7f7f7f;fill-opacity:1;stroke:none;stroke-width:0.264583px;stroke-linecap:butt;stroke-linejoin:miter;stroke-opacity:1"
       d="m 742.05327,56.419053 3.71104,0.583813 c 0.86924,3.045751 5.05807,8.069407 8.42355,11.329477 l -3.39374,0.288825 -8.3264,-8.150561 z"
       id="path35-7"
       sodipodi:nodetypes="cccccc" /></g></svg>
